<?xml version="1.0" encoding="UTF-8" standalone="no"?>
<!-- Created with Inkscape (http://www.inkscape.org/) -->

<svg
   xmlns:osb="http://www.openswatchbook.org/uri/2009/osb"
   xmlns:dc="http://purl.org/dc/elements/1.1/"
   xmlns:cc="http://creativecommons.org/ns#"
   xmlns:rdf="http://www.w3.org/1999/02/22-rdf-syntax-ns#"
   xmlns:svg="http://www.w3.org/2000/svg"
   xmlns="http://www.w3.org/2000/svg"
   xmlns:xlink="http://www.w3.org/1999/xlink"
   xmlns:sodipodi="http://sodipodi.sourceforge.net/DTD/sodipodi-0.dtd"
   xmlns:inkscape="http://www.inkscape.org/namespaces/inkscape"
   width="32.599998mm"
   height="32.599998mm"
   viewBox="0 0 3260.0002 3260.0002"
   version="1.1"
   id="svg8"
   inkscape:version="0.92.3 (2405546, 2018-03-11)"
   sodipodi:docname="25K_V1.svg">
  <defs
     id="defs2">
    <linearGradient
       id="linearGradient6190"
       osb:paint="solid">
      <stop
         style="stop-color:#060000;stop-opacity:0.57647061;"
         offset="0"
         id="stop6188" />
    </linearGradient>
    <circle
       style="opacity:1;fill:none;fill-opacity:0.80402012;fill-rule:nonzero;stroke:#000000;stroke-width:10;stroke-miterlimit:4;stroke-dasharray:none;stroke-opacity:1"
       id="path6606-5"
       cx="1630"
       cy="1894.3999"
       r="0" />
    <path
       style="opacity:1;fill:none;fill-opacity:0.83417089;fill-rule:nonzero;stroke:#000000;stroke-width:2.50000024;stroke-miterlimit:4;stroke-dasharray:none;stroke-opacity:1"
       d="m 1520.7329,353.1203 c -52.0802,6.52237 -104.2957,12.26004 -156.2912,19.27379 -50.1729,11.46532 -100.5592,22.16296 -150.5988,34.10884 -48.7882,16.42053 -97.8651,32.09869 -146.4727,48.98405 -46.9024,21.20822 -94.16603,41.7067 -140.84229,63.35929 -44.54831,25.78239 -89.52708,50.89436 -133.80589,77.09647 -41.75733,30.10584 -84.00975,59.58782 -125.45708,90.08431 -38.53737,34.11915 -77.62962,67.66695 -115.81959,102.1438 -34.94053,37.79704 -70.49035,75.08087 -105.04943,113.19919 -30.99371,41.09862 -62.64485,81.74747 -93.22694,123.12776 -26.73532,43.9871 -54.16959,87.5924 -80.46728,131.8184 -22.2089,46.4328 -45.1516,92.5554 -66.90109,139.1823 -17.46417,48.4247 -35.68906,96.614 -52.67693,145.1859 -12.5411,49.9164 -25.86313,99.6743 -37.91538,149.6898 -7.49611,50.9311 -15.784646,101.7827 -22.784587,152.7636 -2.364223,51.7612 -5.63252,103.5159 -7.429194,155.2812 1.579568,36.7233 2.041977,73.5341 4.328015,110.2022 6.321838,50.4288 11.859146,100.9927 18.672356,151.3368 11.46531,50.173 22.16296,100.5592 34.10883,150.5989 16.42052,48.7882 32.09868,97.8651 48.98405,146.4727 21.20823,46.9023 41.70663,94.1662 63.3593,140.8423 25.783,44.5484 50.89569,89.5271 77.09835,133.8059 30.10519,41.7567 59.58652,84.0085 90.08233,125.4553 34.11917,38.538 67.66692,77.6309 102.14381,115.8214 37.79703,34.9406 75.08082,70.4905 113.19918,105.0495 41.09926,30.9937 81.74877,62.6448 123.12961,93.227 43.98644,26.7347 87.59105,54.1683 131.81653,80.4653 46.4334,22.2096 92.55653,45.153 139.18412,66.9031 48.424,17.4642 96.6127,35.6891 145.1839,52.6769 49.9163,12.5411 99.6743,25.8632 149.6897,37.9154 50.9311,7.4961 101.7828,15.7847 152.7636,22.7846 51.7612,2.3643 103.5159,5.6325 155.2812,7.4292 36.7233,-1.5796 73.5341,-2.0419 110.2021,-4.328 50.4288,-6.3218 100.9928,-11.8591 151.3368,-18.6724 50.173,-11.4653 100.5592,-22.1629 150.5989,-34.1089 48.7882,-16.4204 97.8651,-32.0986 146.4726,-48.9839 46.9025,-21.2083 94.1662,-41.7067 140.8423,-63.3593 44.5484,-25.7831 89.5272,-50.8959 133.806,-77.0984 41.7572,-30.1052 84.0097,-59.5865 125.457,-90.0824 38.5374,-34.1191 77.6297,-67.6669 115.8196,-102.1438 34.9405,-37.7971 70.4904,-75.0809 105.0494,-113.1992 30.9937,-41.0994 62.6448,-81.7488 93.227,-123.1297 26.7353,-43.9864 54.1697,-87.591 80.4672,-131.8166 22.2089,-46.4333 45.1516,-92.5565 66.9011,-139.1841 17.4643,-48.4241 35.6892,-96.6127 52.677,-145.184 12.5411,-49.9163 25.8632,-99.6742 37.9154,-149.6897 7.496,-50.9311 15.7846,-101.7828 22.7846,-152.7637 2.3642,-51.7612 5.6325,-103.5158 7.4292,-155.2811 -1.5796,-36.7234 -2.042,-73.5341 -4.328,-110.2022 -6.3219,-50.4288 -11.8591,-100.9927 -18.6724,-151.3368 -11.4653,-50.173 -22.163,-100.5593 -34.1089,-150.5989 -16.4204,-48.7883 -32.0987,-97.8651 -48.984,-146.4727 -21.2083,-46.9024 -41.7066,-94.1662 -63.3593,-140.8423 -25.783,-44.5484 -50.8957,-89.5272 -77.0983,-133.806 -30.1052,-41.7574 -59.5865,-84.00982 -90.0824,-125.45716 -34.1191,-38.53799 -67.6669,-77.63099 -102.1438,-115.82151 -37.797,-34.93992 -75.0808,-70.48905 -113.199,-105.04754 -41.0994,-30.99437 -81.7489,-62.64617 -123.1298,-93.2289 -43.9864,-26.73466 -87.591,-54.16831 -131.8165,-80.46534 -46.4333,-22.20891 -92.5566,-45.15157 -139.1842,-66.90113 -48.424,-17.46416 -96.6126,-35.68908 -145.1839,-52.67692 -49.9163,-12.54114 -99.6742,-25.8631 -149.6897,-37.91543 -50.9311,-7.49672 -101.7827,-15.78605 -152.7635,-22.78647 -51.7613,-2.3636 -103.5159,-5.63114 -155.2812,-7.42728 -35.0826,1.24219 -70.1652,2.48439 -105.2478,3.72658 z"
       id="path6604-2"
       inkscape:connector-curvature="0" />
    <clipPath
       id="clip1">
      <path
         id="path1025"
         d="M 0 0 L 3502.25 0 L 3502.25 2046.429688 L 0 2046.429688 Z M 0 0 " />
    </clipPath>
  </defs>
  <sodipodi:namedview
     id="base"
     pagecolor="#ffffff"
     bordercolor="#666666"
     borderopacity="1.0"
     inkscape:pageopacity="1"
     inkscape:pageshadow="2"
     inkscape:zoom="4"
     inkscape:cx="55.982184"
     inkscape:cy="68.109028"
     inkscape:document-units="mm"
     inkscape:current-layer="layer2"
     showgrid="true"
     showguides="true"
     units="mm"
     width="32.6mm"
     scale-x="100"
     inkscape:showpageshadow="false"
     inkscape:pagecheckerboard="false"
     inkscape:window-width="1920"
     inkscape:window-height="1017"
     inkscape:window-x="1912"
     inkscape:window-y="-8"
     inkscape:window-maximized="1"
     inkscape:snap-to-guides="false"
     inkscape:snap-global="true"
     inkscape:snap-grids="true">
    <inkscape:grid
       type="xygrid"
       id="grid6602"
       units="mm"
       spacingx="0.326"
       spacingy="0.326"
       enabled="true"
       empspacing="10"
       visible="false" />
  </sodipodi:namedview>
  <metadata
     id="metadata5">
    <rdf:RDF>
      <cc:Work
         rdf:about="">
        <dc:format>image/svg+xml</dc:format>
        <dc:type
           rdf:resource="http://purl.org/dc/dcmitype/StillImage" />
        <dc:title />
      </cc:Work>
    </rdf:RDF>
  </metadata>
  <g
     inkscape:groupmode="layer"
     id="layer5"
     inkscape:label="Crowns"
     style="display:inline"
     sodipodi:insensitive="true">
    <flowRoot
       xml:space="preserve"
       id="flowRoot879"
       style="font-style:normal;font-variant:normal;font-weight:normal;font-stretch:normal;font-size:10.66666698px;line-height:1.25;font-family:Arial;-inkscape-font-specification:Arial;letter-spacing:0px;word-spacing:0px;fill:#000000;fill-opacity:1;stroke:none"
       transform="scale(26.458336)"><flowRegion
         id="flowRegion881"
         style="font-size:10.66666698px"><rect
           id="rect883"
           width="394.01083"
           height="265.52344"
           x="-63.084843"
           y="-6.8998976"
           style="font-size:10.66666698px" /></flowRegion><flowPara
         id="flowPara885" /></flowRoot>    <flowRoot
       xml:space="preserve"
       id="flowRoot887"
       style="font-style:normal;font-variant:normal;font-weight:normal;font-stretch:normal;font-size:18.66666603px;line-height:1.25;font-family:Arial;-inkscape-font-specification:Arial;letter-spacing:0px;word-spacing:0px;fill:#000000;fill-opacity:1;stroke:none"
       transform="scale(26.458336)"><flowRegion
         id="flowRegion889"><rect
           id="rect891"
           width="362.73785"
           height="236.56816"
           x="-98.570068"
           y="0.98570782" /></flowRegion><flowPara
         id="flowPara893" /></flowRoot>    <flowRoot
       xml:space="preserve"
       id="flowRoot895"
       style="font-style:normal;font-variant:normal;font-weight:normal;font-stretch:normal;font-size:18.66666603px;line-height:1.25;font-family:Arial;-inkscape-font-specification:Arial;letter-spacing:0px;word-spacing:0px;fill:#000000;fill-opacity:1;stroke:none"
       transform="scale(26.458336)"><flowRegion
         id="flowRegion897"><rect
           id="rect899"
           width="437.65109"
           height="256.28217"
           x="-110.39848"
           y="-14.785503" /></flowRegion><flowPara
         id="flowPara901" /></flowRoot>    <flowRoot
       xml:space="preserve"
       id="flowRoot903"
       style="font-style:normal;font-variant:normal;font-weight:normal;font-stretch:normal;font-size:18.66666603px;line-height:1.25;font-family:Arial;-inkscape-font-specification:Arial;letter-spacing:0px;word-spacing:0px;fill:#000000;fill-opacity:1;stroke:none"
       transform="scale(26.458336)"><flowRegion
         id="flowRegion905"><rect
           id="rect907"
           width="39.428028"
           height="55.199238"
           x="-102.51287"
           y="-14.785503" /></flowRegion><flowPara
         id="flowPara909" /></flowRoot>    <g
       id="surface1"
       transform="matrix(1.3750907,0,0,1.3750907,-619.55888,106.66956)">
      <path
         id="path1034"
         d="m 2491.6453,1204.4129 -318.4536,0.1431 3.2765,34.8504 311.9319,-0.14 z m -206.1828,-171.344 c -3.7174,-0.3026 -7.4725,-0.4642 -11.2655,-0.4626 -41.5946,0.019 -77.3352,18.6961 -98.572,47.0396 l 70.784,43.2731 z m 208.7757,54.0314 -80.6964,49.1525 -44.9847,-101.929 -36.2802,-82.21873 -36.2177,82.25113 -44.8857,101.9696 -80.7406,-49.0801 -63.6862,-38.7268 41.772,116.1755 14.933,16.6095 8.8371,9.836 320.1754,-0.1436 8.8322,-9.8441 14.9255,-16.623 41.6713,-116.2128 z m -75.9442,35.7416 -39.1415,-89.8152 c 3.713,-0.3057 7.4795,-0.4707 11.2763,-0.4725 41.5831,-0.018 77.3367,18.6266 98.6103,46.9509 l -70.7451,43.3368"
         style="fill:#000000;fill-opacity:1;fill-rule:nonzero;stroke:none;stroke-width:0.97297013"
         inkscape:connector-curvature="0" />
      <path
         id="path1036"
         d="m 2489.1481,1355.5592 c -9.4549,-0.01 -17.1272,7.6479 -17.134,17.1096 -2e-4,5.819 2.9052,10.9598 7.345,14.0616 l -65.6024,99.652 -3.9177,-116.9924 c 9.233,-0.2489 16.6432,-7.801 16.6498,-17.0934 0.01,-9.4518 -7.6481,-17.1273 -17.1098,-17.1341 -9.4515,-0.01 -17.1172,7.658 -17.1238,17.1097 0,7.0664 4.2602,13.1338 10.366,15.7458 l -48.2452,114.1586 c 0,0 -31.918,-102.7073 -39.9183,-128.4405 6.9753,-2.1679 12.0325,-8.6598 12.0378,-16.3401 0.01,-9.4617 -7.648,-17.1273 -17.103,-17.134 -9.4583,-0.01 -17.1239,7.6479 -17.1306,17.1096 0,7.6802 5.0492,14.1793 12.0112,16.3573 l -40.101,128.3834 -48.2252,-114.5756 c 5.6851,-2.7727 9.6038,-8.6155 9.6086,-15.3732 0.01,-9.455 -7.6579,-17.1208 -17.1095,-17.1276 -9.4517,-0.01 -17.1273,7.6483 -17.1341,17.1031 -0.01,9.4583 7.658,17.1273 17.1096,17.1339 0.1524,8e-4 0.2953,-0.01 0.4512,-0.01 l -4.0777,116.9703 -65.891,-100.3992 c 4.6897,-3.0553 7.7856,-8.3347 7.7897,-14.3394 0.01,-9.4516 -7.6478,-17.1274 -17.1094,-17.1341 -9.4517,-0.01 -17.1207,7.658 -17.1275,17.1099 -0.01,9.4514 7.6514,17.127 17.103,17.1336 1.4266,-0.01 2.8036,-0.177 4.1175,-0.4979 l 41.221,162.3699 268.664,0.1912 41.2192,-161.4285 c 1.3863,0.3658 2.8361,0.556 4.3422,0.5571 9.4517,0.01 17.1273,-7.648 17.1341,-17.1029 0.01,-9.4618 -7.6582,-17.1274 -17.1097,-17.1341 z m -313.8663,205.7723 268.2228,0.191 -0.016,23.6276 -268.2228,-0.1911 0.016,-23.6275"
         style="fill:#000000;fill-opacity:1;fill-rule:nonzero;stroke:none;stroke-width:0.84928942"
         inkscape:connector-curvature="0" />
      <path
         id="path1038"
         d="m 1775.2478,1806.2347 c -14.4714,0 -26.1965,11.7341 -26.1965,26.2023 0,4.7932 1.2975,9.2812 3.5431,13.1412 l -70.8932,39.8324 -43.5679,-80.192 c 8.1525,-4.4437 13.6893,-13.0879 13.6893,-23.0238 0,-14.4683 -11.7252,-26.2024 -26.1965,-26.2024 -14.4684,0 -26.2025,11.7341 -26.2025,26.2024 0,9.9359 5.5368,18.5801 13.6893,23.0238 l -43.5591,80.192 -70.7124,-39.7257 c 2.1329,-3.7919 3.3535,-8.1673 3.3535,-12.8302 0,-14.4624 -11.7251,-26.1934 -26.1965,-26.1934 -14.4684,0 -26.1935,11.731 -26.1935,26.1934 0,14.4684 11.7251,26.2025 26.1935,26.2025 3.0127,0 5.901,-0.5155 8.5939,-1.4487 l 47.4575,136.6732 h 187.1464 l 47.588,-137.0523 c 2.6602,0.9005 5.5042,1.4012 8.4636,1.4012 14.4683,0 26.1994,-11.7312 26.1994,-26.1936 0,-14.4682 -11.7311,-26.2023 -26.1994,-26.2023 z m -62.0297,205.2703 -7.4771,21.5307 h -160.23 l -7.4771,-21.5307 h 175.1842"
         style="fill:#000000;fill-opacity:1;fill-rule:nonzero;stroke:none;stroke-width:0.75837338"
         inkscape:connector-curvature="0" />
      <path
         id="path1040"
         d="m 1429.9429,1692.3896 c -8.7827,4e-4 -15.2108,7.1248 -14.3544,15.9386 0.4331,4.4524 2.6492,8.4696 5.8628,11.3645 l -30.8138,40.9946 -40.6126,-79.1589 c 5.3427,-2.4744 8.6905,-8.0579 8.0581,-14.5659 -0.8563,-8.81 -8.668,-15.9525 -17.4508,-15.9577 -8.7821,3e-4 -15.2099,7.1283 -14.3538,15.9383 0.4793,4.9313 3.1451,9.3462 6.9439,12.2698 l -29.1928,44.9866 -66.1474,-104.6664 c 4.7282,-2.6895 7.614,-7.9708 7.0225,-14.0529 -0.8552,-8.803 -8.6702,-15.9419 -17.4528,-15.9473 -8.7931,3e-4 -15.2175,7.125 -14.362,15.9278 0.5912,6.0821 4.5036,11.3674 9.7624,14.0631 l -45.8197,104.5978 -38.5185,-45.725 c 3.5908,-2.9048 5.6591,-7.5283 5.1521,-12.7446 -0.8568,-8.8136 -8.6716,-15.9524 -17.4541,-15.9578 -8.7862,3e-4 -15.2143,7.1247 -14.3576,15.9383 0.644,6.6241 5.2345,12.3111 11.2132,14.7185 l -25.5538,80.1564 -38.7897,-41.0371 c 2.6544,-2.8915 4.0868,-6.9064 3.654,-11.3589 -0.8566,-8.8136 -8.6716,-15.9526 -17.4541,-15.9577 -8.786,4e-4 -15.2106,7.1248 -14.354,15.9383 0.8555,8.8028 8.6674,15.9452 17.4534,15.9507 1.9455,-0.019 3.7671,-0.3673 5.4289,-1.0068 l 42.9896,100.4359 307.5073,0.1885 23.4675,-100.3952 c 1.7862,0.6417 3.6833,1.0126 5.6253,1.0138 8.7825,-4e-4 15.2173,-7.1284 14.362,-15.9314 -0.8568,-8.8136 -8.6789,-15.9524 -17.4611,-15.9579 z m -329.3867,146.1374 302.2049,0.1859 -4.0947,44.4741 -285.3736,-0.1751 -12.7366,-44.4849"
         style="fill:#000000;fill-opacity:1;fill-rule:nonzero;stroke:none;stroke-width:0.89998794"
         inkscape:connector-curvature="0" />
      <path
         id="path1042"
         d="m 1231.5668,1250.4288 -438.57104,-0.8318 7.31739,30.1967 423.82135,0.8061 z m 75.9175,-240.5465 c -22.9598,34.9335 -47.7854,126.1047 -51.6719,140.7028 l -21.1991,80.2829 -444.58982,-0.8443 -20.89387,-80.3629 c -3.83104,-14.6128 -28.30978,-105.8778 -51.13729,-140.8981 10.19077,5.0705 37.51336,31.999 51.23627,62.6517 3.95389,-5.7128 13.0235,-14.2033 24.40044,-16.5605 -5.89144,8.6844 -8.38099,25.058 -5.01491,38.7561 3.10446,12.6302 11.16516,22.7614 19.3003,22.4893 6.51618,-0.2162 12.29385,-6.4877 12.01787,-20.6271 -0.29028,-14.5564 -5.87361,-32.1225 -21.25205,-43.5193 9.96648,-2.2947 26.31292,4.1075 32.11447,8.7423 -0.0598,-0.5715 -0.11292,-1.1427 -0.16506,-1.7041 -3.4265,-36.7959 7.27788,-69.32393 26.52805,-80.37203 20.93662,10.87131 36.3771,36.63013 38.58657,73.44393 0.0353,0.5713 0.0621,1.1422 0.089,1.7035 5.09413,-4.6683 12.8805,-9.59 29.28275,-9.0622 -4.6798,3.5021 -11.01372,12.439 -12.68068,27.2609 -0.64669,5.7588 -0.70695,11.5145 0.25454,20.1771 1.39658,12.5475 10.07964,21.8353 18.22407,21.8508 12.44527,0.021 18.08312,-11.0894 18.78213,-20.8664 2.30612,-32.316 -23.65485,-62.3162 -23.65485,-62.3162 21.87245,-0.7727 34.7921,5.7476 42.09033,12.0187 -0.023,-0.7647 -0.0425,-1.5247 -0.0551,-2.2897 -0.98826,-49.72323 17.56749,-103.12392 44.82564,-118.24848 27.2005,15.22806 45.5533,68.69905 44.3811,118.41858 -0.031,0.7649 -0.03,1.525 -0.067,2.2892 7.322,-6.2438 20.2662,-12.7153 42.1357,-11.8588 0,0 -26.0747,29.9014 -23.8913,62.2249 0.6618,9.7803 6.2574,20.9153 18.7025,20.9386 8.145,0.018 16.8629,-9.24 18.3069,-21.7815 0.9997,-8.6591 0.9552,-14.4155 0.339,-20.1763 -1.6097,-14.8279 -7.9098,-23.7888 -12.577,-27.3088 16.4044,-0.4657 24.1721,4.4856 29.2482,9.1736 0,-0.5618 0,-1.1335 0,-1.7057 2.3495,-36.8047 17.8882,-62.50529 38.8655,-73.29642 19.2079,11.12047 29.7887,43.68912 26.2226,80.47182 -0.049,0.561 -0.108,1.1323 -0.1905,1.7023 5.8192,-4.6119 22.1892,-10.9526 32.1471,-8.6196 -15.4216,11.3383 -21.0714,28.8826 -21.4169,43.4381 -0.3205,14.1383 5.4237,20.4312 11.939,20.6719 8.1392,0.2994 16.233,-9.7971 19.3858,-22.4154 3.418,-13.6853 0.999,-30.0678 -4.8678,-38.775 11.3681,2.4004 20.4051,10.9247 24.3376,16.654 13.839,-30.6012 41.2637,-57.4253 51.4735,-62.4573"
         style="fill:#000000;fill-opacity:1;fill-rule:nonzero;stroke:none;stroke-width:1.27133715"
         inkscape:connector-curvature="0" />
      <path
         id="path1044"
         d="m 2174.7847,508.30031 3.322,-95.94881 -43.4978,93.55529 23.5678,20.72737 z m -113.3208,-3.01976 -59.232,-150.34381 -59.3469,150.3032 62.8873,62.03219 z m -189.0233,0.92788 -47.7656,-93.97789 6.0768,94.86855 15.5587,19.42831 z m 300.4841,75.75629 -341.5504,-0.11694 c -18.6742,-83.57853 -15.1355,-186.44726 -13.94,-211.25553 8.1393,14.59107 31.8839,56.97403 41.339,71.69401 10.5247,16.39559 44.2261,61.89746 44.5545,62.33906 l 1.4649,1.97943 -11.0254,38.88906 16.9988,27.47613 12.1056,-27.46615 -18.079,-38.89904 97.4574,-204.33197 97.3076,204.39865 -17.977,38.88676 12.0865,27.47439 17.018,-27.46443 -11.1275,-38.89672 1.4753,-1.97849 c 0.3195,-0.44123 34.0586,-45.92011 44.5882,-62.30837 9.4738,-14.71361 33.2392,-57.08029 41.388,-71.66585 1.1843,24.80916 4.6532,127.68026 -14.0845,211.24602 z m -269.5055,-87.33744 19.4683,-41.37858 -28.697,-49.05101 -19.7028,50.25249 c 11.295,16.02937 24.5808,34.24504 28.9315,40.1771 z m 269.0207,94.1197 -340.5797,-0.11679 5.8812,34.90255 328.7875,0.11263 z m -71.6384,-94.05205 -19.4396,-41.39202 28.7144,-49.0313 19.6878,50.26594 c -11.3097,16.0217 -24.6081,34.22831 -28.9626,40.15738"
         style="fill:#000000;fill-opacity:1;fill-rule:nonzero;stroke:none;stroke-width:0.80159235"
         inkscape:connector-curvature="0" />
      <path
         id="path1046"
         d="m 869.03362,1623.9835 224.92058,-0.1868 0.026,30.4983 -224.92103,0.187 z m 104.10754,-257.5587 c -16.56512,0.7814 -31.97747,3.4152 -31.97747,3.4152 l -0.0199,-24.0454 c 0,0 15.3721,2.5996 31.91463,3.3623 -0.85701,-14.7204 -3.33775,-31.9775 -3.33775,-31.9775 l 24.03634,-0.02 c 0,0 -2.44603,17.2074 -3.28484,31.9086 14.69663,-0.8604 31.90013,-3.3409 31.90013,-3.3409 l 0.02,24.0454 c 0,0 -17.2612,-2.4612 -31.97392,-3.2937 0.66613,14.0067 2.64063,27.1732 3.23869,30.8738 -3.71699,-1.2764 -7.70154,-1.981 -11.8548,-1.9777 -4.15028,0.01 -8.13935,0.7147 -11.84844,1.9974 0.58289,-3.7105 2.54465,-16.9102 3.18741,-30.9476 z m -99.50668,219.7787 c -0.59585,-0.8289 -59.829,-83.6388 -48.82406,-130.263 3.64378,-15.4266 11.7987,-26.3908 24.92193,-33.518 21.15904,-11.4784 51.07522,-10.8576 76.78382,-7.0082 -27.66222,8.4991 -44.50199,26.0698 -48.92276,51.2376 -7.64879,43.5509 7.43896,87.3396 23.87534,124.8604 l -26.11609,0.021 c -0.003,-1.8504 -0.55355,-3.7156 -1.71818,-5.3303 z m 99.07319,-158.1384 0.13593,163.3879 -52.28909,0.043 c -0.002,-1.2344 -0.24596,-2.4986 -0.77955,-3.7 -16.72493,-37.6135 -31.2387,-77.9359 -24.20302,-117.9907 6.97929,-39.7632 57.25496,-42.3189 77.13573,-41.7403 z m 95.45173,41.5968 c 7.0936,40.0433 -7.3443,80.3894 -24.0069,118.0302 -0.5406,1.2026 -0.7834,2.467 -0.7824,3.7022 l -52.27993,0.043 -0.1358,-163.4027 c 19.87053,-0.6502 70.12683,1.7378 77.20503,41.627 z m 45.7514,-47.4594 c 13.1351,7.1055 21.3113,18.0565 24.9804,33.4769 11.0829,46.6058 -48.0069,129.5139 -48.6066,130.3353 -1.1645,1.6259 -1.7114,3.4915 -1.7094,5.3422 l -26.1102,0.021 c 16.3679,-37.5482 31.3798,-81.3616 23.6588,-124.8999 -4.4599,-25.1601 -21.323,-42.703 -49.0081,-51.1561 25.7022,-3.8921 55.6265,-4.5566 76.7951,6.8802 z m 42.7362,29.258 c -4.8757,-20.4982 -16.3427,-35.7451 -34.0829,-45.3283 -41.3586,-22.3272 -105.9279,-6.85 -132.22825,1.0113 -1.30591,-3.4499 -4.62834,-5.8987 -8.52882,-5.8956 -3.9063,0 -7.22459,2.4578 -8.52482,5.9098 -26.31313,-7.8176 -90.90516,-23.1873 -132.22984,-0.7913 -17.72388,9.6126 -29.15678,24.8789 -34.00132,45.385 -11.25408,47.6508 34.35882,119.5974 48.07923,139.7994 l -0.18974,-6e-4 13.07328,21.8923 227.31278,-0.1887 10.3211,-17.342 c 6.6421,-9.3837 63.5214,-91.8075 50.9999,-144.452"
         style="fill:#000000;fill-opacity:1;fill-rule:nonzero;stroke:none;stroke-width:0.76164633"
         inkscape:connector-curvature="0"
         inkscape:transform-center-x="-294.38296"
         inkscape:transform-center-y="270.6026" />
      <path
         id="path1048"
         d="m 1608.7891,996.79462 3.8514,13.32218 h 138.9576 l 3.8449,-13.32218 z m 143.9868,-19.2706 c 0,-4.33608 -3.5137,-7.84982 -7.8499,-7.84982 -4.334,0 -7.8476,3.51374 -7.8476,7.84982 0,4.33404 3.5136,7.85436 7.8476,7.85436 4.3362,0 7.8499,-3.52032 7.8499,-7.85436 z m -25.1201,0 c 0,-4.33608 -3.5158,-7.84982 -7.8564,-7.84982 -4.334,0 -7.8478,3.51374 -7.8478,7.84982 0,4.33404 3.5138,7.85436 7.8478,7.85436 4.3406,0 7.8564,-3.52032 7.8564,-7.85436 z m -25.1265,0 c 0,-4.33608 -3.516,-7.84982 -7.85,-7.84982 -4.334,0 -7.8499,3.51374 -7.8499,7.84982 0,4.33404 3.5159,7.85436 7.8499,7.85436 4.334,0 7.85,-3.52032 7.85,-7.85436 z m -25.1223,0 c 0,-4.33608 -3.5137,-7.84982 -7.8543,-7.84982 -4.334,0 -7.8498,3.51374 -7.8498,7.84982 0,4.33404 3.5158,7.85436 7.8498,7.85436 4.3406,0 7.8543,-3.52032 7.8543,-7.85436 z m -25.1267,0 c 0,-4.33608 -3.5136,-7.84982 -7.8476,-7.84982 -4.3362,0 -7.85,3.51374 -7.85,7.84982 0,4.33404 3.5138,7.85436 7.85,7.85436 4.334,0 7.8476,-3.52032 7.8476,-7.85436 z m -25.1201,0 c 0,-4.33608 -3.5158,-7.84982 -7.8542,-7.84982 -4.3362,0 -7.8499,3.51374 -7.8499,7.84982 0,4.33404 3.5137,7.85436 7.8499,7.85436 4.3384,0 7.8542,-3.52032 7.8542,-7.85436 z m 129.9344,13.55908 h -149.9504 l -7.975,-27.59623 h 165.8981 z m 55.1991,-157.31772 c 0,5.51837 -4.4744,9.99494 -9.9928,9.99494 -0.8816,0 -1.7371,-0.1294 -2.5507,-0.34216 l -33.038,114.3573 h -169.1925 l -32.6518,-113.02814 c -0.9255,0.28073 -1.9147,0.43865 -2.9369,0.43865 -5.5117,0 -9.9883,-4.47436 -9.9883,-9.99493 0,-5.51839 4.4766,-9.98837 9.9883,-9.98837 5.5207,0 9.995,4.46998 9.995,9.98837 0,3.07283 -1.3862,5.81228 -3.5641,7.64809 l 33.8626,43.45399 13.9296,-45.16039 c -4.0137,-1.29844 -6.922,-5.05999 -6.922,-9.50584 0,-5.52057 4.4744,-9.99495 9.995,-9.99495 5.5183,0 9.9884,4.47438 9.9884,9.99495 0,3.52027 -1.825,6.60846 -4.5753,8.38725 l 29.5395,46.27898 23.8633,-53.40288 c -3.4873,-1.56164 -5.9198,-5.0534 -5.9198,-9.11981 0,-5.51838 4.4765,-9.98836 9.995,-9.98836 5.5206,0 9.9905,4.46998 9.9905,9.98836 0,4.06641 -2.4323,7.55817 -5.9197,9.11981 l 23.8698,53.40288 29.7304,-46.58166 c -2.5047,-1.81388 -4.1431,-4.75511 -4.1431,-8.08457 0,-5.52057 4.4743,-9.99495 9.9949,-9.99495 5.5183,0 9.9927,4.47438 9.9927,9.99495 0,4.65422 -3.1933,8.55613 -7.5054,9.66156 l 13.8793,45.00467 34.56,-44.34668 c -2.5727,-1.80728 -4.2616,-4.79458 -4.2616,-8.18106 0,-5.52059 4.4744,-9.99495 9.9949,-9.99495 5.5184,0 9.9928,4.47436 9.9928,9.99495"
         style="fill:#000000;fill-opacity:1;fill-rule:nonzero;stroke:none;stroke-width:0.56148905"
         inkscape:connector-curvature="0" />
      <path
         id="path1054"
         d="m 2428.4794,879.88128 -319.7379,-0.27634 5.3945,30.75109 308.8888,0.26702 z M 2085.511,763.35443 c -9.34,-34.8445 -19.923,-67.05001 -30.773,-94.76902 15.0189,11.84274 33.4975,30.58066 42.3896,40.89254 -11.9953,24.44965 5.0004,56.51281 21.2424,54.73441 11.3407,-1.24536 19.0403,-14.21177 17.662,-29.89082 -1.7003,-19.21407 -12.895,-27.2665 -12.895,-27.2665 12.175,-15.36086 34.0609,-62.50566 34.0609,-62.50566 0,0 24.5498,42.10679 38.8994,60.28938 -7.9911,6.35167 -14.4334,15.87466 -15.0307,31.26727 -0.9627,24.63233 12.598,41.58793 29.7511,41.72897 15.6237,0.1252 29.8014,-17.57088 29.5074,-39.75903 -0.3663,-27.97328 -23.66,-36.69978 -23.66,-36.69978 l 52.1842,-95.86939 52.0073,95.95943 c 0,0 -23.3027,8.68612 -23.7234,36.65893 -0.333,22.18761 13.8257,39.90828 29.4387,39.80996 17.1645,-0.11024 30.7396,-17.04361 29.8305,-41.67753 -0.5812,-15.39343 -6.9971,-24.92781 -14.9874,-31.29311 14.3847,-18.15787 39.018,-60.22219 39.018,-60.22219 0,0 21.7938,47.1826 33.9384,62.56449 0,0 -11.1946,8.03305 -12.9283,27.24421 -1.4201,15.67659 6.2617,28.65633 17.6001,29.92128 16.2461,1.80654 33.2896,-30.22739 21.3371,-54.69765 8.916,-10.29637 27.4283,-29.00226 42.4707,-40.81896 -10.9122,27.70011 -21.5473,59.88718 -30.9405,94.71554 -9.8631,36.52272 -17.1606,71.48274 -21.7569,102.39089 l -323.0627,-0.27921 c -4.543,-30.91624 -11.7763,-65.88877 -21.5799,-102.42845"
         style="fill:#000000;fill-opacity:1;fill-rule:nonzero;stroke:none;stroke-width:0.92329437"
         inkscape:connector-curvature="0" />
      <path
         id="path1056"
         d="m 2161.2459,1845.3529 -283.4318,-1.9204 7.9693,29.0918 267.1002,1.8089 z m 61.7263,-206.576 c -11.218,31.2103 -58.6953,192.5692 -58.6953,192.5692 l -288.9633,-1.9578 c 0,0 -45.2865,-161.987 -56.0747,-193.3452 14.8389,19.2732 21.8663,28.2699 35.9911,48.5085 -8.9474,16.3678 5.4518,48.8396 22.1016,46.2892 8.1649,-1.2609 12.5666,-11.8605 9.6069,-26.3635 -1.7513,-8.5971 -5.226,-16.3178 -15.0175,-23.4283 3.3369,-10.6681 13.7002,-43.1727 14.4716,-56.6573 5.2606,12.7941 20.5421,35.9726 43.3006,57.0655 -7.2525,7.6415 -10.4736,16.2319 -8.5402,29.0613 2.7242,18.0865 16.8282,27.3247 28.7636,26.8411 8.9346,-0.368 22.5047,-8.7559 21.8855,-28.8658 -0.2641,-8.6749 -3.8732,-15.6828 -9.0982,-21.0922 -7.7994,-8.0631 -17.3924,-9.373 -17.3924,-9.373 31.1485,-25.9624 76.2227,-104.1911 76.2227,-104.1911 0,0 44.0069,78.8321 74.8076,105.2146 0,0 -9.61,1.1795 -17.5172,9.136 -5.3051,5.3386 -9.0022,12.2959 -9.3906,20.967 -0.8945,20.0995 12.5711,28.6703 21.4999,29.1592 11.9173,0.6453 26.1555,-8.401 29.1244,-26.4488 2.0966,-12.8022 -1.0045,-21.4355 -8.1527,-29.1745 23.0488,-20.7825 38.6331,-43.7512 44.0662,-56.4736 0.5891,13.4941 10.5211,46.136 13.7034,56.848 -9.8838,6.9773 -13.4632,14.6502 -15.3341,23.2226 -3.1524,14.4616 1.1019,25.1198 9.253,26.4914 16.6099,2.7757 31.4511,-29.4978 22.7227,-45.9856 14.3976,-20.0455 21.5565,-28.9459 36.6575,-48.0157"
         style="fill:#000000;fill-opacity:1;fill-rule:nonzero;stroke:none;stroke-width:0.87072837"
         inkscape:connector-curvature="0" />
      <path
         id="path1058"
         d="m 1806.93,252.27166 c -9.9609,-0.23506 -18.2265,7.65085 -18.462,17.60823 -0.094,4.00779 1.1315,7.74591 3.2771,10.79601 l -25.9773,19.24571 -19.4693,-48.06427 c 6.5344,-2.58962 11.2199,-8.88624 11.3968,-16.35917 0.2341,-9.95738 -7.638,-18.21603 -17.5986,-18.45178 -9.9577,-0.23506 -18.2261,7.64107 -18.4615,17.59843 -0.1062,4.7532 1.629,9.11509 4.5472,12.40916 l -36.7198,32.27097 -11.0976,-0.1447 -37.8437,-74.48901 c 5.7205,-2.90977 9.6964,-8.78818 9.8591,-15.65634 0.2341,-9.96063 -7.6414,-18.21942 -17.6019,-18.45512 -9.9577,-0.23507 -18.2259,7.64106 -18.462,17.60169 -0.1678,6.86803 3.5412,12.9283 9.1082,16.10518 l -41.3252,72.61551 -11.0855,-0.38017 -35.0214,-33.83462 c 3.0409,-3.14323 4.9568,-7.39254 5.0683,-12.10638 0.2339,-9.95739 -7.6474,-18.22283 -17.608,-18.45857 -9.9577,-0.23502 -18.2233,7.64773 -18.4589,17.605 -0.1815,7.41399 4.1493,13.88147 10.4781,16.8114 l -21.6583,46.9471 -25.3273,-20.68545 c 2.4686,-2.99984 3.9881,-6.81358 4.0874,-11.00772 0.2341,-9.95736 -7.6408,-18.22594 -17.5986,-18.46157 -9.9672,-0.23517 -18.2262,7.65086 -18.4616,17.60823 -0.234,9.95737 7.641,18.22588 17.6083,18.46178 1.9089,0.0443 3.7632,-0.21184 5.5085,-0.72334 l 27.0041,91.63983 283.647,6.71243 30.2906,-89.68864 c 1.7258,0.60014 3.5785,0.95473 5.504,1.0003 9.9573,0.23504 18.2231,-7.65098 18.459,-17.60831 0.2342,-9.95739 -7.648,-18.22611 -17.6052,-18.46174 z m -319.389,126.45706 280.4663,6.63718 -11.1094,38.48979 -260.0875,-6.15492 -9.2694,-38.97205"
         style="fill:#000000;fill-opacity:1;fill-rule:nonzero;stroke:none;stroke-width:0.83709568"
         inkscape:connector-curvature="0" />
      <path
         id="path1060"
         d="m 1104.21,585.1246 256.4367,-0.0668 7.8909,-29.7367 -272.2304,0.0709 z m 341.0308,-181.5029 c 6e-4,16.35631 -13.2593,29.61972 -29.615,29.62399 -3.147,5.8e-4 -6.1864,-0.49657 -9.0395,-1.40254 l -33.4409,105.92709 -281.1435,0.0733 -33.1983,-104.94559 c -2.9349,0.972 -6.0742,1.51391 -9.3389,1.51483 -16.3563,0.005 -29.6198,-13.2487 -29.6242,-29.61576 -6e-4,-16.35991 13.2523,-29.61974 29.6084,-29.62403 16.3599,-0.005 29.6271,13.24867 29.6314,29.60857 8e-4,6.55836 -2.1292,12.6154 -5.7368,17.52257 25.3094,16.13112 56.3902,24.86738 83.9389,13.46739 25.951,-10.74372 52.1174,-47.6956 65.9682,-90.04869 -11.8167,-3.88529 -20.3524,-15.00351 -20.3561,-28.12369 -6e-4,-16.35632 13.2594,-29.62688 29.6159,-29.63111 16.3599,-0.005 29.6196,13.25933 29.6239,29.61565 2e-4,13.12018 -8.526,24.24284 -20.3341,28.13437 13.8654,42.34574 40.0516,79.28403 66.0077,90.01423 27.7558,11.46805 59.0938,2.51479 84.4839,-13.8589 -3.9361,-5.02704 -6.2958,-11.35529 -6.2979,-18.23616 -5e-4,-16.36709 13.2559,-29.6269 29.6167,-29.63122 16.3557,-0.004 29.6259,13.24866 29.6302,29.61575"
         style="fill:#000000;fill-opacity:1;fill-rule:nonzero;stroke:none;stroke-width:0.91744512"
         inkscape:connector-curvature="0" />
      <path
         id="path1062"
         d="m 1151.7167,818.88642 -332.90282,-0.2672 6.61086,33.25935 319.62766,0.25645 z M 817.97166,799.48672 778.47831,672.379 l 47.00879,36.63849 32.63235,-85.37327 62.5721,78.52277 64.76704,-124.23169 64.56751,124.33546 62.698,-78.42225 32.4954,85.4256 47.0674,-36.56308 -39.6973,127.04413 -334.61794,-0.26844"
         style="fill:#000000;fill-opacity:1;fill-rule:nonzero;stroke:none;stroke-width:0.89244622"
         inkscape:connector-curvature="0" />
      <path
         id="path1048-8"
         d="m 1602.9072,1395.2326 4.4866,15.5188 h 161.8692 l 4.4789,-15.5188 z m 167.7278,-22.4479 c 0,-5.051 -4.093,-9.1441 -9.1442,-9.1441 -5.0486,0 -9.1415,4.0931 -9.1415,9.1441 0,5.0486 4.0929,9.1494 9.1415,9.1494 5.0512,0 9.1442,-4.1008 9.1442,-9.1494 z m -29.2619,0 c 0,-5.051 -4.0955,-9.1441 -9.1519,-9.1441 -5.0485,0 -9.1417,4.0931 -9.1417,9.1441 0,5.0486 4.0932,9.1494 9.1417,9.1494 5.0564,0 9.1519,-4.1008 9.1519,-9.1494 z m -29.2695,0 c 0,-5.051 -4.0957,-9.1441 -9.1443,-9.1441 -5.0487,0 -9.1442,4.0931 -9.1442,9.1441 0,5.0486 4.0955,9.1494 9.1442,9.1494 5.0486,0 9.1443,-4.1008 9.1443,-9.1494 z m -29.2645,0 c 0,-5.051 -4.0931,-9.1441 -9.1493,-9.1441 -5.0486,0 -9.1442,4.0931 -9.1442,9.1441 0,5.0486 4.0956,9.1494 9.1442,9.1494 5.0562,0 9.1493,-4.1008 9.1493,-9.1494 z m -29.2697,0 c 0,-5.051 -4.0929,-9.1441 -9.1415,-9.1441 -5.0511,0 -9.1443,4.0931 -9.1443,9.1441 0,5.0486 4.0932,9.1494 9.1443,9.1494 5.0486,0 9.1415,-4.1008 9.1415,-9.1494 z m -29.2619,0 c 0,-5.051 -4.0955,-9.1441 -9.1492,-9.1441 -5.0512,0 -9.1442,4.0931 -9.1442,9.1441 0,5.0486 4.093,9.1494 9.1442,9.1494 5.0537,0 9.1492,-4.1008 9.1492,-9.1494 z m 151.3583,15.7947 h -174.6747 l -9.2898,-32.1464 h 193.2517 z m 64.3005,-183.2567 c 0,6.4283 -5.2122,11.643 -11.6404,11.643 -1.0272,0 -2.0236,-0.1508 -2.9713,-0.3986 l -38.4855,133.2129 h -197.0893 l -38.0356,-131.6647 c -1.078,0.3271 -2.2304,0.511 -3.4211,0.511 -6.4205,0 -11.6352,-5.212 -11.6352,-11.6429 0,-6.4283 5.2147,-11.6353 11.6352,-11.6353 6.4309,0 11.643,5.207 11.643,11.6353 0,3.5795 -1.6147,6.7706 -4.1518,8.9092 l 39.446,50.6188 16.2264,-52.6066 c -4.6755,-1.5125 -8.0634,-5.8943 -8.0634,-11.0732 0,-6.4309 5.2122,-11.6429 11.643,-11.6429 6.4282,0 11.6353,5.212 11.6353,11.6429 0,4.1007 -2.1258,7.698 -5.3297,9.7701 l 34.4101,53.9097 27.798,-62.2081 c -4.0623,-1.8192 -6.8959,-5.8867 -6.8959,-10.6235 0,-6.4283 5.2146,-11.6353 11.643,-11.6353 6.4308,0 11.6378,5.207 11.6378,11.6353 0,4.7368 -2.8334,8.8043 -6.8958,10.6235 l 27.8056,62.2081 34.6324,-54.2622 c -2.9177,-2.113 -4.8263,-5.5391 -4.8263,-9.4176 0,-6.4309 5.2121,-11.6429 11.6429,-11.6429 6.4282,0 11.6404,5.212 11.6404,11.6429 0,5.4216 -3.7199,9.9669 -8.743,11.2546 l 16.1677,52.4252 40.2585,-51.6588 c -2.9969,-2.1052 -4.9643,-5.585 -4.9643,-9.5299 0,-6.4308 5.2121,-11.6429 11.6429,-11.6429 6.4282,0 11.6404,5.2121 11.6404,11.6429"
         style="display:inline;fill:#000000;fill-opacity:1;fill-rule:nonzero;stroke:none;stroke-width:0.65406889"
         inkscape:connector-curvature="0" />
    </g>
  </g>
  <g
     inkscape:label="Paths"
     inkscape:groupmode="layer"
     id="layer1"
     transform="translate(0,-264.4)"
     style="display:none"
     sodipodi:insensitive="true">
    <circle
       style="opacity:1;fill:none;fill-opacity:0.83417089;fill-rule:nonzero;stroke:#000000;stroke-width:10;stroke-miterlimit:4;stroke-dasharray:none;stroke-opacity:1"
       id="path6600"
       cx="1630"
       cy="1894.3999"
       r="0" />
    <path
       style="opacity:1;fill:none;fill-opacity:0.83417089;fill-rule:nonzero;stroke:#000000;stroke-width:2.50605273;stroke-miterlimit:4;stroke-dasharray:none;stroke-opacity:1"
       d="m 1520.4683,349.38921 c -52.2062,6.53816 -104.5482,12.28973 -156.6695,19.32045 -50.2944,11.49308 -100.8027,22.21662 -150.9635,34.19142 -48.9062,16.46028 -98.102,32.1764 -146.8272,49.10263 -47.016,21.25957 -94.39407,41.80767 -141.18333,63.51268 -44.65617,25.8448 -89.74383,51.01757 -134.12985,77.28311 -41.85842,30.17872 -84.21314,59.73207 -125.76082,90.30239 -38.63067,34.20176 -77.81756,67.83077 -116.09999,102.39108 -35.02513,37.88855 -70.66101,75.26264 -105.30376,113.47324 -31.06875,41.19811 -62.79652,81.94537 -93.45265,123.42589 -26.80005,44.0935 -54.30074,87.8044 -80.6621,132.1374 -22.26267,46.5453 -45.26092,92.7795 -67.06307,139.5193 -17.50645,48.5419 -35.77546,96.8479 -52.80445,145.5373 -12.57147,50.0373 -25.92575,99.9156 -38.00719,150.0523 -7.51425,51.0543 -15.822856,102.0291 -22.839744,153.1333 -2.369947,51.8866 -5.646156,103.7665 -7.447181,155.6572 1.583393,36.8122 2.046921,73.7121 4.338494,110.469 6.337144,50.5508 11.887859,101.2372 18.717561,151.7031 11.49307,50.2945 22.21662,100.8027 34.19142,150.9636 16.46027,48.9062 32.17639,98.102 49.10264,146.8272 21.25958,47.0159 41.8076,94.3943 63.5127,141.1833 25.84541,44.6563 51.01891,89.7438 77.285,134.1299 30.17808,41.8577 59.73078,84.2118 90.30043,125.759 34.20178,38.6312 67.83075,77.8188 102.3911,116.1017 37.88855,35.0252 75.2626,70.6612 113.47325,105.3038 41.19876,31.0688 81.94669,62.7965 123.42771,93.4527 44.09294,26.7994 87.80312,54.2995 132.13567,80.6602 46.54582,22.2633 92.78062,45.2622 139.52106,67.065 48.5412,17.5065 96.8466,35.7755 145.5354,52.8045 50.0372,12.5714 99.9156,25.9257 150.0521,38.0071 51.0544,7.5143 102.0293,15.8229 153.1334,22.8398 51.8866,2.37 103.7665,5.6461 155.6572,7.4472 36.8123,-1.5834 73.7121,-2.0469 110.4689,-4.3385 50.5509,-6.3371 101.2374,-11.8878 151.7032,-18.7176 50.2945,-11.4931 100.8026,-22.2166 150.9635,-34.1915 48.9063,-16.4601 98.1021,-32.1763 146.8272,-49.1025 47.0161,-21.2596 94.3943,-41.8077 141.1833,-63.5126 44.6563,-25.8455 89.744,-51.0192 134.13,-77.2851 41.8583,-30.178 84.2131,-59.7307 125.7608,-90.3005 38.6306,-34.2017 77.8176,-67.8307 116.0999,-102.3911 35.0251,-37.8885 70.6611,-75.2626 105.3037,-113.4732 31.0688,-41.1989 62.7966,-81.9467 93.4527,-123.4278 26.8001,-44.0929 54.3009,-87.8031 80.6621,-132.1357 22.2626,-46.5457 45.2609,-92.7805 67.0631,-139.5211 17.5066,-48.5412 35.7756,-96.8466 52.8046,-145.5354 12.5713,-50.0372 25.9257,-99.9155 38.0071,-150.0521 7.5141,-51.0544 15.8228,-102.0292 22.8398,-153.1335 2.3699,-51.8865 5.6461,-103.7664 7.4472,-155.6571 -1.5835,-36.8123 -2.047,-73.7121 -4.3385,-110.469 -6.3372,-50.5508 -11.8878,-101.2371 -18.7176,-151.7031 -11.4931,-50.2945 -22.2167,-100.8027 -34.1916,-150.9635 -16.46,-48.9064 -32.1763,-98.102 -49.1025,-146.8272 -21.2597,-47.016 -41.8076,-94.3943 -63.5127,-141.1834 -25.8454,-44.6562 -51.0189,-89.7439 -77.285,-134.1299 -30.178,-41.8584 -59.7307,-84.21317 -90.3005,-125.76085 -34.2017,-38.63129 -67.8307,-77.81893 -102.3911,-116.1019 -37.8884,-35.02451 -75.2625,-70.65969 -113.473,-105.30185 -41.1989,-31.06941 -81.9468,-62.79783 -123.428,-93.4546 -44.0928,-26.79938 -87.803,-54.29944 -132.1355,-80.66014 -46.5458,-22.26267 -92.7807,-45.26087 -139.5212,-67.06308 -48.5412,-17.50645 -96.8465,-35.77549 -145.5354,-52.80445 -50.0372,-12.5715 -99.9155,-25.92572 -150.0521,-38.00722 -51.0544,-7.51487 -102.0292,-15.82427 -153.1333,-22.84163 -51.8867,-2.36933 -103.7666,-5.64478 -155.6572,-7.44526 -35.1676,1.24519 -70.3351,2.4904 -105.5027,3.73559 z"
       id="path6604"
       inkscape:connector-curvature="0" />
    <circle
       style="opacity:1;fill:none;fill-opacity:0.80402012;fill-rule:nonzero;stroke:#000000;stroke-width:10;stroke-miterlimit:4;stroke-dasharray:none;stroke-opacity:1"
       id="path6606"
       cx="1630"
       cy="1894.3999"
       r="0" />
    <path
       style="opacity:1;fill:none;fill-opacity:0.83417089;fill-rule:nonzero;stroke:#000000;stroke-width:2.50615191;stroke-miterlimit:4;stroke-dasharray:none;stroke-opacity:1"
       d="m 1514.8105,269.58219 c -54.9028,6.8759 -109.9485,12.92456 -164.7622,20.31847 -52.8925,12.08674 -106.0097,23.36419 -158.7616,35.95755 -51.4325,17.31053 -103.1694,33.83845 -154.4114,51.63902 -49.44459,22.35772 -99.26999,43.96721 -148.47613,66.7934 -46.96288,27.1798 -94.37952,53.65287 -141.05828,81.27513 -44.02061,31.73761 -88.56313,62.81752 -132.25696,94.96695 -40.6261,35.96844 -81.83721,71.33455 -122.09708,107.68005 -36.83436,39.84566 -74.31097,79.15032 -110.7432,119.33466 -32.67361,43.32621 -66.04024,86.17826 -98.2799,129.80136 -28.1844,46.37112 -57.10564,92.33992 -84.82868,138.96302 -23.41262,48.9496 -47.59884,97.5718 -70.52718,146.7262 -18.41074,51.0492 -37.623435,101.8504 -55.532053,153.0551 -13.220842,52.6218 -27.264955,105.0767 -39.970433,157.8029 -7.902407,53.6916 -16.640185,107.2994 -24.0195284,161.0435 -2.492368,54.5667 -5.9378055,109.1264 -7.8318647,163.6976 1.6651775,38.7138 2.152654,77.5197 4.5625995,116.1752 6.6644886,53.1619 12.5019176,106.4666 19.6844076,159.5392 12.086749,52.8925 23.364201,106.0098 35.957553,158.7616 17.310531,51.4325 33.83846,103.1694 51.639019,154.4115 22.35774,49.4446 43.96718,99.2699 66.79343,148.4761 27.18047,46.963 53.65429,94.3795 81.27715,141.0583 31.73692,44.02 62.81616,88.5618 94.96486,132.2549 35.96843,40.6269 71.33452,81.8388 107.68009,122.0992 39.84566,36.8344 79.15026,74.3109 119.33466,110.7431 43.32687,32.6737 86.17961,66.0404 129.80336,98.2799 46.3705,28.1838 92.33851,57.1043 138.96107,84.8266 48.95011,23.4136 97.57315,47.6004 146.72813,70.5294 51.04836,18.4108 101.84896,37.6233 153.05286,55.532 52.6218,13.221 105.0767,27.265 157.803,39.9706 53.6917,7.9025 107.2995,16.64 161.0436,24.0196 54.5667,2.4917 109.1263,5.9377 163.6975,7.8317 38.7138,-1.6649 77.5196,-2.152 116.1751,-4.5626 53.1621,-6.6646 106.4668,-12.5017 159.5393,-19.6844 52.8925,-12.0868 106.0096,-23.3642 158.7615,-35.9576 51.4325,-17.3105 103.1696,-33.8384 154.4115,-51.639 49.4447,-22.3577 99.2701,-43.9672 148.4762,-66.7934 46.963,-27.1802 94.3795,-53.6544 141.0584,-81.2771 44.0204,-31.7371 88.5631,-62.816 132.2567,-94.9649 40.6262,-35.9685 81.8374,-71.3346 122.0973,-107.6802 36.8341,-39.8456 74.311,-79.1503 110.7431,-119.3347 32.6734,-43.3267 66.0403,-86.1796 98.2799,-129.8033 28.1844,-46.3706 57.1056,-92.3385 84.8285,-138.9611 23.4128,-48.95 47.5989,-97.5731 70.5273,-146.728 18.4107,-51.0485 37.6236,-101.8491 55.5319,-153.0533 13.2209,-52.6215 27.2651,-105.0765 39.9706,-157.8028 7.9024,-53.6916 16.6404,-107.2995 24.0196,-161.0436 2.4917,-54.5666 5.9378,-109.1263 7.8319,-163.6974 -1.6648,-38.7139 -2.1519,-77.5198 -4.5625,-116.1753 -6.6646,-53.1619 -12.5021,-106.4666 -19.6844,-159.5392 -12.0869,-52.8924 -23.3646,-106.0096 -35.9578,-158.7615 -17.3104,-51.4326 -33.8384,-103.1696 -51.639,-154.4115 -22.3578,-49.4447 -43.9671,-99.2701 -66.7935,-148.4761 -27.1804,-46.9631 -53.6541,-94.3796 -81.2768,-141.0584 -31.7372,-44.02073 -62.8163,-88.56319 -94.9649,-132.257 -35.9686,-40.62678 -71.3345,-81.83865 -107.6802,-122.09913 -39.8458,-36.83367 -79.1503,-74.30958 -119.3346,-110.74115 -43.3267,-32.6743 -86.1796,-66.04164 -129.8035,-98.28198 -46.3705,-28.18368 -92.3384,-57.10427 -138.9611,-84.82662 -48.9501,-23.41266 -97.5731,-47.5988 -146.728,-70.52719 -51.0485,-18.41074 -101.8491,-37.62347 -153.0531,-55.53207 -52.6218,-13.22087 -105.0767,-27.26489 -157.8029,-39.97045 -53.6916,-7.90306 -107.2993,-16.64167 -161.0435,-24.02153 -54.5666,-2.49171 -109.1264,-5.93634 -163.6976,-7.82983 -36.984,1.30951 -73.968,2.61904 -110.9522,3.92854 z"
       id="path6604-3"
       inkscape:connector-curvature="0" />
    <path
       style="opacity:1;fill:none;fill-opacity:0.83417089;fill-rule:nonzero;stroke:#000000;stroke-width:2.50566149;stroke-miterlimit:4;stroke-dasharray:none;stroke-opacity:1"
       d="m 1620.784,595.6859 0.7702,-0.0329 c 42.5441,0.49139 85.0398,3.88099 127.5585,5.64236 43.0514,4.20765 85.6662,12.35754 128.5314,18.3705 42.4307,8.45267 83.9963,20.84013 126.0227,31.08584 41.3943,12.6477 81.5123,29.12698 122.325,43.52006 39.8803,16.69952 78.1845,37.10803 117.3439,55.50507 38.0472,20.61347 74.088,44.72572 111.2247,66.9443 35.7724,24.28183 69.2558,51.91128 103.9994,77.72488 33.1804,27.74427 63.7155,58.55404 95.6978,87.69773 30.2527,30.92836 57.5562,64.62886 86.4624,96.80966 27.0189,33.8088 50.8375,70.0757 76.3902,104.9978 23.4918,36.3113 43.5671,74.7634 65.5037,112.0586 19.7634,38.4904 35.8894,78.7588 53.996,118.049 15.702,39.9627 27.6592,81.314 41.6191,121.912 10.047,34.4624 16.6248,69.8253 24.6882,104.7975 10.0437,39.1275 12.7272,79.4781 17.9022,119.4548 6.3908,39.9998 6.5118,80.4025 7.9107,120.8148 0.3131,44.2125 -3.73,88.3653 -5.4563,132.5614 -4.1512,43.0511 -12.3519,85.6597 -18.3469,128.5228 -8.4551,42.4436 -20.8366,83.9748 -31.0889,126.0134 -12.644,41.3934 -29.1302,81.5066 -43.5217,122.3176 -16.7211,39.9019 -37.1122,78.1822 -55.5098,117.3338 -20.6113,38.044 -44.7416,74.0905 -66.9503,111.2179 -24.2914,35.774 -51.9103,69.2458 -77.7295,103.9891 -27.7439,33.1806 -58.5609,63.7096 -87.7062,95.6907 -30.9312,30.2501 -64.6313,57.5559 -96.8174,86.4572 -33.8104,27.0176 -70.0811,50.8319 -105.0043,76.3838 -36.3143,23.4897 -74.7684,43.5648 -112.067,65.4988 -38.4916,19.7636 -78.7638,35.8845 -118.0555,53.991 -39.6494,15.5856 -80.6765,27.4568 -120.9636,41.2929 -34.7386,10.3125 -70.472,16.833 -105.7633,25.0103 -39.1302,10.0425 -79.483,12.7256 -119.4656,17.901 -40.0027,6.3926 -80.4088,6.5078 -120.8239,7.9104 -44.2157,0.3125 -88.372,-3.73 -132.5713,-5.4563 -43.0543,-4.1509 -85.666,-12.351 -128.5323,-18.3455 -42.4468,-8.4544 -83.9811,-20.8349 -126.0229,-31.0864 -41.3956,-12.6437 -81.5111,-29.1285 -122.3249,-43.5182 -39.9068,-16.7195 -78.1898,-37.112 -117.3462,-55.5084 -38.04596,-20.6091 -74.09535,-44.7359 -111.22443,-66.9429 -35.77626,-24.2917 -69.25428,-51.9051 -103.99787,-77.7243 -33.18126,-27.748 -63.71665,-58.5514 -95.69688,-87.6991 -30.25167,-30.9302 -57.56023,-64.6277 -86.46359,-96.8121 -26.99015,-33.7654 -50.81825,-70.053 -76.36607,-104.9593 -23.50647,-36.3187 -43.58114,-74.7881 -65.5272,-112.0939 -19.76518,-38.4886 -35.88721,-78.758 -53.99505,-118.0465 -15.70262,-39.963 -27.65984,-81.3143 -41.62002,-121.9126 -10.05045,-34.4614 -16.6192,-69.8266 -24.68817,-104.7973 -10.04578,-39.1229 -12.72524,-79.4806 -17.90213,-119.4548 -6.39093,-40 -6.51184,-80.4026 -7.91081,-120.8149 -0.31331,-44.2099 3.73031,-88.3704 5.45441,-132.5633 4.15538,-43.0507 12.35285,-85.6597 18.34874,-128.5227 8.45145,-42.4274 20.83946,-83.9896 31.08891,-126.0115 12.64417,-41.3941 29.1303,-81.508 43.52175,-122.3196 16.72106,-39.9026 37.11274,-78.1834 55.51028,-117.3356 20.61126,-38.0432 44.74161,-74.0893 66.94983,-111.2161 24.29172,-35.7739 51.90891,-69.2466 77.73009,-103.9882 27.74561,-33.1789 58.5571,-63.712 87.70551,-95.68975 30.92855,-30.25265 64.63485,-57.55239 96.81811,-86.45847 33.80339,-27.01547 70.07129,-50.82262 104.98629,-76.37431 36.31408,-23.50298 74.78381,-43.5647 112.0845,-65.50897 38.4916,-19.76344 78.7643,-35.88345 118.0559,-53.99002 40.2762,-15.81845 81.9551,-27.84754 122.8624,-41.93676 41.3356,-11.63455 83.6525,-19.39545 125.4507,-29.23566 35.3792,-6.56427 71.3142,-9.58551 107.0216,-14.13803 38.3868,-5.84693 77.216,-5.30691 115.9249,-6.98265 z"
       id="path6604-3-7"
       inkscape:connector-curvature="0" />
    <path
       style="display:inline;opacity:1;fill:none;fill-opacity:0.83417089;fill-rule:nonzero;stroke:#000000;stroke-width:2.74658084;stroke-miterlimit:4;stroke-dasharray:none;stroke-opacity:1"
       d="m 1619.8977,470.83022 v -2.6e-4 c -42.4309,1.83677 -84.9937,1.2448 -127.0714,7.65395 -39.141,4.99021 -78.5311,8.30196 -117.3123,15.49732 -45.8172,10.78636 -92.2028,19.29346 -137.5131,32.04656 -44.8407,15.4439 -90.5272,28.6295 -134.6762,45.9689 -43.0696,19.8474 -87.2147,37.5174 -129.40751,59.1808 -40.8872,24.0542 -83.0559,46.0448 -122.8617,71.8075 -38.2722,28.0083 -78.02738,54.1045 -115.08118,83.7173 -35.2777,31.6853 -72.2251,61.61 -106.1276,94.7712 -31.9511,35.0524 -65.7252,68.521 -96.1386,104.8899 -28.304,38.08181 -58.5766,74.77281 -85.2042,113.98611 -24.3436,40.6966 -50.7942,80.2083 -73.3873,121.9091 -20.1665,42.9167 -42.5189,84.8779 -60.8478,128.617 -15.7752,44.7355 -33.8466,88.7061 -47.7065,134.0802 -11.235,46.062 -24.8142,91.6204 -34.0783,138.1269 -6.5724,46.9842 -15.5581,93.6898 -20.1131,140.8798 -1.8898,48.4418 -6.3223,96.8483 -5.9787,145.3086 1.5334,44.2979 1.6659,88.5849 8.6714,132.4308 5.6747,43.8176 8.6118,88.0555 19.6235,130.9401 8.8448,38.3328 16.0451,77.0984 27.062,114.873 15.3026,44.5016 28.4095,89.8286 45.6219,133.634 19.849,43.0659 37.5213,87.2069 59.187,129.3961 24.0562,40.8927 46.0612,83.0607 71.8278,122.8713 28.0044,38.2625 54.1236,78.0391 83.7089,115.0507 31.6826,35.2789 61.617,72.2163 94.7775,106.1203 35.0551,31.9501 68.5267,65.7153 104.8985,96.131 38.0843,28.3017 74.78128,58.5699 113.99758,85.1971 40.6992,24.3422 80.2149,50.7887 121.9191,73.3792 42.92151,20.1652 84.88551,42.5184 128.62961,60.8454 44.738,15.7732 88.7107,33.8429 134.0868,47.7023 46.0842,11.2372 91.6123,24.808 138.1404,34.0753 46.9881,6.5706 93.6971,15.5594 140.8913,20.1092 48.4492,1.8924 96.8514,6.3234 145.3184,5.981 44.3014,-1.5376 88.5926,-1.6637 132.4416,-8.671 43.827,-5.6731 88.06,-8.6142 130.9528,-19.6222 38.6846,-8.9633 77.8539,-16.1108 115.9328,-27.4148 44.1609,-15.1665 89.1329,-28.1789 132.5948,-45.2631 43.0697,-19.8473 87.2143,-37.5181 129.407,-59.182 40.8849,-24.0429 83.0365,-46.0481 122.8427,-71.7962 38.2812,-28.0086 78.0394,-54.1127 115.1009,-83.7278 35.2808,-31.6801 72.2215,-61.6113 106.1268,-94.7698 31.9477,-35.0559 65.7278,-68.5203 96.1394,-104.8909 28.3017,-38.0838 58.5762,-74.7737 85.2034,-113.9873 24.3442,-40.6971 50.7947,-80.2093 73.3878,-121.911 20.1667,-42.9159 42.5185,-84.8767 60.8474,-128.6151 15.7753,-44.7347 33.8466,-88.7046 47.7065,-134.0778 11.2381,-46.0806 24.8102,-91.6047 34.0783,-138.129 6.5713,-46.9843 15.5606,-93.6895 20.1109,-140.8799 1.8923,-48.4454 6.324,-96.8433 5.981,-145.3066 -1.5335,-44.2979 -1.6661,-88.5851 -8.6714,-132.4307 -5.6727,-43.8203 -8.6141,-88.0504 -19.6235,-130.94 -8.8388,-38.3346 -16.049,-77.0975 -27.0621,-114.8733 -15.3023,-44.5013 -28.4092,-89.8285 -45.621,-133.6334 -19.8476,-43.0678 -37.5242,-87.2077 -59.1879,-129.399 -24.0459,-40.8809 -46.0516,-83.03 -71.8021,-122.8325 -28.0098,-38.2797 -54.1186,-78.0334 -83.7353,-115.0929 -31.6858,-35.27491 -61.6148,-72.21551 -94.7762,-106.11741 -35.0575,-31.9457 -68.5288,-65.7178 -104.8996,-96.1296 -38.0843,-28.2954 -74.7872,-58.5814 -113.9993,-85.1978 -40.7076,-24.3547 -80.2138,-50.7854 -121.9194,-73.3807 -42.9248,-20.1658 -84.912,-42.5365 -128.6271,-60.8416 -44.7369,-15.777 -88.7123,-33.8407 -134.087,-47.7044 -46.0673,-11.2308 -91.6296,-24.8092 -138.1401,-34.07454 -46.9869,-6.5912 -93.6994,-15.52468 -140.8904,-20.13683 -46.6068,-1.93071 -93.1888,-5.64612 -139.8236,-6.1848 z"
       id="path6604-3-7-2"
       inkscape:connector-curvature="0" />
  </g>
  <g
     inkscape:groupmode="layer"
     id="layer3"
     inkscape:label="Circles"
     style="display:inline"
     sodipodi:insensitive="true">
    <path
       style="opacity:1;fill:none;fill-opacity:0.83417089;fill-rule:nonzero;stroke:#000000;stroke-width:1.00290823;stroke-miterlimit:4;stroke-dasharray:none;stroke-opacity:1"
       d="m 1520.4154,84.238969 c -52.2318,6.541336 -104.5991,12.295688 -156.7459,19.329831 -50.3187,11.49866 -100.8514,22.22741 -151.0366,34.20802 -48.9301,16.46828 -98.1497,32.19204 -146.8986,49.12649 -47.0388,21.26989 -94.4399,41.82797 -141.25194,63.54353 -44.67785,25.85735 -89.78745,51.04234 -134.19501,77.32065 -41.87874,30.19338 -84.25401,59.76106 -125.82184,90.34626 -38.64947,34.21835 -77.85535,67.86369 -116.1564,102.44079 -35.04212,37.90694 -70.6953,75.29921 -105.35489,113.52836 -31.08384,41.21811 -62.82708,81.98518 -93.49812,123.48574 -26.81305,44.11501 -54.32702,87.84711 -80.7012,132.20172 -22.27348,46.56782 -45.2829,92.82453 -67.09565,139.58714 -17.51499,48.5655 -35.79289,96.8948 -52.8301,145.608 -12.57756,50.0616 -25.9384,99.9642 -38.02565,150.1251 -7.5179,51.0792 -15.830602,102.0787 -22.850859,153.2078 -2.371074,51.9116 -5.648879,103.8168 -7.450804,155.7328 1.584193,36.83 2.047938,73.7478 4.340586,110.5225 6.340285,50.5754 11.893692,101.2864 18.726707,151.7769 11.49863,50.3189 22.22735,100.8516 34.20798,151.0368 16.46825,48.9301 32.19205,98.1497 49.12655,146.8986 21.26988,47.0387 41.82789,94.4401 63.54346,141.2519 25.85798,44.6779 51.0437,89.7874 77.3226,134.195 30.19275,41.8781 59.75978,84.2528 90.34427,125.8199 34.21841,38.6501 67.86368,77.8567 102.44084,116.1583 37.90691,35.0422 75.29914,70.6955 113.52839,105.355 41.21872,31.0837 81.98643,62.8268 123.48767,93.4981 44.11431,26.8124 87.84572,54.3257 132.19983,80.6992 46.56843,22.274 92.82565,45.2842 139.58888,67.0977 48.5649,17.5149 96.8936,35.7927 145.6061,52.8299 50.0615,12.5778 99.9642,25.9385 150.125,38.0259 51.0792,7.5177 102.0787,15.8304 153.2079,22.8509 51.9115,2.3722 103.8168,5.6487 155.7326,7.4506 36.8301,-1.5842 73.748,-2.0486 110.5225,-4.3404 50.5755,-6.3404 101.2866,-11.8937 151.777,-18.7268 50.3189,-11.4988 100.8516,-22.2273 151.0368,-34.2082 48.9301,-16.4681 98.1498,-32.1918 146.8986,-49.1264 47.0389,-21.2699 94.44,-41.8278 141.2519,-63.5434 44.6779,-25.8581 89.7875,-51.0438 134.195,-77.3225 41.8786,-30.1929 84.254,-59.7599 125.8218,-90.3444 38.6495,-34.2183 77.8556,-67.8637 116.1565,-102.4407 35.0421,-37.9073 70.6954,-75.2994 105.3549,-113.5286 31.0837,-41.2188 62.8268,-81.9864 93.4981,-123.4876 26.8129,-44.1143 54.3271,-87.8457 80.7013,-132.1998 22.2735,-46.5684 45.2826,-92.8257 67.0955,-139.5889 17.5151,-48.565 35.7929,-96.8936 52.8301,-145.6062 12.5777,-50.0614 25.9385,-99.9641 38.0258,-150.1249 7.5177,-51.0792 15.8305,-102.0788 22.8509,-153.208 2.3723,-51.9117 5.6488,-103.8168 7.4506,-155.7325 -1.5842,-36.8303 -2.0485,-73.748 -4.3404,-110.5226 -6.3404,-50.5755 -11.8937,-101.2864 -18.7268,-151.777 -11.4987,-50.3189 -22.2275,-100.8516 -34.2082,-151.0368 -16.468,-48.9302 -32.192,-98.1497 -49.1264,-146.8986 -21.2698,-47.0388 -41.8278,-94.44007 -63.5433,-141.2519 -25.8582,-44.67794 -51.0439,-89.78754 -77.3226,-134.1951 -30.1929,-41.87882 -59.7599,-84.25406 -90.3444,-125.82194 -34.2183,-38.65002 -67.8637,-77.8567 -102.441,-116.15828 -37.9067,-35.04152 -75.2989,-70.69399 -113.5281,-105.35298 -41.2189,-31.08451 -81.9866,-62.82834 -123.4878,-93.49998 -44.1144,-26.81242 -87.8457,-54.32582 -132.1997,-80.69933 -46.5684,-22.27348 -92.8258,-45.28286 -139.5891,-67.09566 -48.5648,-17.51495 -96.8935,-35.79285 -145.606,-52.83009 -50.0615,-12.57761 -99.9641,-25.93831 -150.125,-38.02569 -51.0792,-7.51851 -102.0787,-15.831944 -153.2078,-22.85271 -51.9118,-2.370473 -103.8169,-5.647525 -155.7328,-7.448877 -35.1846,1.245791 -70.3692,2.491604 -105.5537,3.737406 z"
       id="path6604-8"
       inkscape:connector-curvature="0" />
    <path
       style="opacity:1;fill:none;fill-opacity:0.83417089;fill-rule:nonzero;stroke:#000000;stroke-width:1.00000024;stroke-miterlimit:4;stroke-dasharray:none;stroke-opacity:1"
       d="m 1514.7574,4.4319495 c -54.9281,6.8790645 -109.9993,12.9305265 -164.8383,20.3278425 -52.9169,12.092333 -106.0586,23.374984 -158.8348,35.974155 -51.4563,17.318528 -103.2171,33.854074 -154.4828,51.662863 -49.46748,22.36805 -99.31591,43.98752 -148.54472,66.82424 -46.98457,27.19237 -94.42316,53.67766 -141.12351,81.31268 -44.04088,31.75226 -88.604,62.84656 -132.31803,95.01081 -40.6448,35.98506 -81.875,71.36749 -122.15342,107.72979 -36.85142,39.86405 -74.34533,79.18687 -110.79439,119.38977 -32.68869,43.34621 -66.07071,86.21805 -98.32524,129.8613 -28.1975,46.39257 -57.13205,92.38254 -84.86791,139.02723 -23.42339,48.97217 -47.62083,97.61688 -70.5597,146.79397 -18.4193,51.0729 -37.640837,101.8975 -55.557769,153.1257 -13.22696,52.6462 -27.277521,105.1253 -39.988877,157.8758 -7.906049,53.7165 -16.647833,107.349 -24.0306546,161.118 -2.493469,54.5919 -5.9405191,109.1768 -7.83544325,163.7731 1.66595665,38.7317 2.15367845,77.5556 4.56470715,116.2288 6.6675377,53.1866 12.5076627,106.5159 19.6935107,159.6131 12.092353,52.9169 23.374945,106.0587 35.974174,158.8348 17.318487,51.4564 33.854093,103.2172 51.662812,154.4829 22.36811,49.4674 43.98754,99.3159 66.82431,148.5447 27.19298,46.9846 53.67909,94.423 81.31466,141.1233 31.75166,44.0404 62.84521,88.6028 95.00877,132.3161 35.98501,40.6457 71.36745,81.8766 107.72975,122.1556 39.86412,36.8515 79.18686,74.3451 119.38986,110.7942 43.34686,32.6888 86.21935,66.0707 129.86328,98.3254 46.39194,28.1969 92.38111,57.1306 139.02529,84.8657 48.97267,23.4243 97.61819,47.6225 146.79582,70.5621 51.07222,18.4192 101.89602,37.6406 153.12362,55.5575 52.6462,13.227 105.1253,27.2777 157.8759,39.9891 53.7164,7.906 107.349,16.6477 161.1179,24.0307 54.592,2.4917 109.1768,5.9405 163.7732,7.8352 38.7316,-1.6665 77.5554,-2.1521 116.2287,-4.5647 53.1867,-6.6676 106.516,-12.5073 159.6131,-19.6935 52.9169,-12.0923 106.0585,-23.3747 158.8348,-35.9742 51.4563,-17.3184 103.2172,-33.854 154.4828,-51.6629 49.4675,-22.368 99.316,-43.9874 148.5448,-66.824 46.9845,-27.1929 94.423,-53.6792 141.1234,-81.3146 44.0408,-31.7518 88.6041,-62.8454 132.3179,-95.0089 40.6449,-35.9852 81.875,-71.3675 122.1536,-107.73 36.8512,-39.864 74.3453,-79.1867 110.7944,-119.3899 32.6883,-43.3468 66.0707,-86.2193 98.3254,-129.863 28.1974,-46.3922 57.1319,-92.3813 84.8675,-139.0254 23.4235,-48.9726 47.621,-97.6182 70.5598,-146.7958 18.4192,-51.0721 37.6411,-101.8961 55.5578,-153.1239 13.2269,-52.6459 27.2776,-105.1251 39.9889,-157.8757 7.9061,-53.7164 16.648,-107.3491 24.0308,-161.1181 2.4917,-54.5917 5.9402,-109.1767 7.8355,-163.773 -1.6665,-38.7317 -2.1521,-77.5555 -4.5647,-116.2288 -6.6676,-53.1865 -12.5079,-106.5158 -19.6935,-159.613 -12.0925,-52.9169 -23.3753,-106.0585 -35.9745,-158.8348 -17.3182,-51.4564 -33.854,-103.2172 -51.6628,-154.4828 -22.368,-49.46762 -43.9874,-99.31604 -66.8243,-148.54476 -27.1929,-46.98477 -53.6787,-94.42326 -81.3144,-141.12351 -31.7518,-44.04108 -62.8453,-88.60411 -95.0086,-132.31809 -35.9855,-40.64555 -71.3675,-81.87647 -107.7299,-122.15552 -39.8644,-36.85071 -79.187,-74.34392 -119.3899,-110.79232 -43.3468,-32.68937 -86.2193,-66.07214 -129.8634,-98.32737 -46.392,-28.19669 -92.3811,-57.13063 -139.0252,-84.86579 -48.9728,-23.42348 -97.6183,-47.62079 -146.7959,-70.55977 C 2210.5794,109.49502 2159.7554,90.273443 2108.5278,72.35657 2055.8817,59.12959 2003.4026,45.079078 1950.652,32.367661 1896.9356,24.46095 1843.3031,15.718303 1789.5341,8.3350382 1734.9423,5.8421807 1680.3573,2.3959439 1625.7609,0.50158135 1588.7598,1.8117007 1551.7586,3.1218301 1514.7574,4.4319495 Z"
       id="path6604-3-5"
       inkscape:connector-curvature="0" />
    <path
       style="opacity:1;fill:none;fill-opacity:0.83417089;fill-rule:nonzero;stroke:#000000;stroke-width:1.00347173;stroke-miterlimit:4;stroke-dasharray:none;stroke-opacity:1"
       d="m 1620.7787,330.53352 0.7706,-0.0318 c 42.5686,0.49166 85.089,3.88323 127.6322,5.6456 43.0764,4.21011 85.7158,12.3647 128.6057,18.38115 42.4552,8.45755 84.0451,20.85218 126.0956,31.1038 41.4183,12.65501 81.5595,29.14384 122.3958,43.54524 39.9033,16.70918 78.2296,37.12949 117.4118,55.53717 38.0692,20.62542 74.1307,44.75158 111.2891,66.98302 35.7929,24.29588 69.2958,51.94129 104.0594,77.76983 33.1996,27.76032 63.7525,58.5879 95.7532,87.74845 30.2701,30.9461 57.5895,64.66624 86.5124,96.86566 27.0345,33.82836 50.8668,70.11628 76.4344,105.05849 23.5055,36.33235 43.5923,74.80668 65.5415,112.12347 19.775,38.5126 35.9103,78.8044 54.0273,118.1172 15.711,39.9859 27.6753,81.3611 41.6433,121.9824 10.0528,34.4823 16.6342,69.8659 24.7022,104.8583 10.0496,39.15 12.7345,79.524 17.9126,119.5238 6.3946,40.023 6.5156,80.4489 7.9156,120.8847 0.3131,44.238 -3.7322,88.4164 -5.4596,132.638 -4.1536,43.0762 -12.3592,85.7094 -18.3576,128.5973 -8.4599,42.468 -20.8485,84.0233 -31.1068,126.0862 -12.6514,41.4174 -29.1471,81.5538 -43.547,122.3884 -16.7307,39.9249 -37.1335,78.2275 -55.542,117.4015 -20.623,38.066 -44.7674,74.1333 -66.9887,111.2823 -24.3056,35.7947 -51.9407,69.2859 -77.7747,104.0492 -27.7599,33.1997 -58.5947,63.7465 -87.7568,95.746 -30.9491,30.2676 -64.6688,57.5893 -96.8734,86.5073 -33.83,27.0332 -70.1217,50.8614 -105.0651,76.428 -36.3354,23.5032 -74.8116,43.5899 -112.1317,65.5366 -38.5139,19.7752 -78.8094,35.9052 -118.1238,54.0224 -39.6725,15.5947 -80.7232,27.4727 -121.0336,41.3168 -34.7587,10.3184 -70.5129,16.8427 -105.8245,25.0246 -39.1527,10.0482 -79.5289,12.733 -119.5347,17.9113 -40.0259,6.3964 -80.4551,6.5116 -120.8938,7.9153 -44.2411,0.3131 -88.423,-3.7323 -132.6478,-5.4596 -43.0793,-4.1533 -85.7156,-12.3584 -128.6067,-18.3563 -42.4713,-8.4591 -84.0299,-20.8468 -126.0958,-31.1042 -41.4196,-12.6511 -81.5583,-29.1452 -122.3957,-43.5435 -39.9298,-16.7292 -78.235,-37.1334 -117.4141,-55.5404 -38.06791,-20.6211 -74.13812,-44.7619 -111.28868,-66.9816 -35.79691,-24.3058 -69.29432,-51.9351 -104.05801,-77.7694 -33.20045,-27.7638 -63.7535,-58.5852 -95.75226,-87.7497 -30.26914,-30.948 -57.59342,-64.6652 -86.51355,-96.8681 -27.0058,-33.7849 -50.84761,-70.0936 -76.41021,-105.02 -23.5201,-36.3399 -43.60636,-74.8314 -65.56514,-112.1587 -19.77659,-38.511 -35.90794,-78.8035 -54.02622,-118.1148 -15.71176,-39.9861 -27.6759,-81.3614 -41.6441,-121.983 -10.05632,-34.4814 -16.62886,-69.8672 -24.70246,-104.858 -10.0516,-39.1455 -12.73262,-79.5267 -17.91251,-119.524 -6.39462,-40.0232 -6.51557,-80.4489 -7.91533,-120.8848 -0.3137,-44.2353 3.73248,-88.4214 5.45757,-132.6398 4.15768,-43.0758 12.35995,-85.7093 18.35927,-128.5972 8.45639,-42.4518 20.85153,-84.0382 31.10691,-126.0843 12.65148,-41.4181 29.14716,-81.555 43.54691,-122.3903 16.73075,-39.9257 37.13422,-78.2285 55.54242,-117.4035 20.62319,-38.06513 44.76747,-74.13204 66.98858,-111.2804 24.30572,-35.79451 51.93891,-69.28671 77.77497,-104.04832 27.76164,-33.19805 58.59097,-63.74879 87.75628,-95.74511 30.94647,-30.27017 64.67222,-57.5857 96.87404,-86.5085 33.82302,-27.0311 70.11184,-50.85202 105.04702,-76.41846 36.33514,-23.5166 74.82711,-43.58993 112.1492,-65.54687 38.5139,-19.77487 78.8099,-35.90419 118.1242,-54.02124 40.2997,-15.82758 82.0026,-27.86365 122.9336,-41.96103 41.3595,-11.64128 83.7009,-19.40664 125.5232,-29.25257 35.3998,-6.56804 71.3554,-9.59105 107.0835,-14.14619 38.409,-5.85032 77.2606,-5.30999 115.992,-6.98667 z"
       id="path6604-3-7-0"
       inkscape:connector-curvature="0" />
    <path
       style="opacity:1;fill:#ffff00;fill-opacity:1;fill-rule:nonzero;stroke:#000000;stroke-width:0;stroke-miterlimit:4;stroke-dasharray:none;stroke-dashoffset:0;stroke-opacity:1"
       d="M 56.507341,122.83751 C 47.603838,122.18636 37.807692,118.97246 29.640398,114.02305 10.463335,102.40169 -1.0316737,80.592634 0.27777752,58.314445 1.9005826,30.705049 21.359248,7.7047771 48.198837,1.6714378 53.288038,0.52742313 56.077832,0.24239066 61.899031,0.2716931 66.67477,0.29573294 67.267476,0.33487035 70.561089,0.84366363 76.819078,1.8103899 82.145331,3.4222218 87.708428,6.0327936 110.18041,16.578127 124.15187,39.761612 122.94451,64.501629 c -1.34212,27.501418 -20.76614,50.774391 -47.522062,56.938761 -4.651382,1.07165 -9.123992,1.58056 -13.597022,1.54713 -2.001287,-0.015 -4.394426,-0.0825 -5.318085,-0.15001 z m 12.285981,-3.08628 C 103.39081,115.28496 126.4108,82.484707 118.73475,48.591727 114.33048,29.145007 100.27006,13.265692 81.432856,6.464338 73.240682,3.5064755 63.819609,2.3689339 55.446681,3.3266537 28.37994,6.4226265 7.4640857,26.664006 3.5586207,53.541474 c -0.4141805,2.850397 -0.4772118,3.8606 -0.4908316,7.866563 -0.017881,5.259201 0.3087267,8.347611 1.3927474,13.169864 5.2276453,23.255118 24.3664985,41.167069 47.9851765,44.909069 5.240344,0.83024 11.215094,0.92683 16.347609,0.26426 z"
       id="path1305"
       inkscape:connector-curvature="0"
       transform="scale(26.458336)" />
    <path
       style="opacity:1;fill:#ff8c93;fill-opacity:1;fill-rule:nonzero;stroke:#000000;stroke-width:0;stroke-miterlimit:4;stroke-dasharray:none;stroke-dashoffset:0;stroke-opacity:1"
       d="M 56.860895,119.84222 C 50.069466,119.30543 42.617321,117.25997 36.26641,114.18945 16.785983,104.77112 4.3519332,85.847994 3.2108721,63.882911 3.064648,61.068142 3.3721964,56.04514 3.8981762,52.657591 7.5618008,29.062181 25.330439,10.012603 48.656024,4.6731535 53.576797,3.5467412 56.249962,3.2644628 61.810642,3.2840633 c 4.317534,0.015219 5.20743,0.069784 7.954952,0.4877702 C 85.875898,6.2227274 99.772802,14.64064 109.02907,27.5553 c 10.06723,14.046135 13.39915,31.636383 9.17402,48.432579 -1.85501,7.374258 -5.47345,14.873298 -10.10499,20.942094 -9.443913,12.374547 -23.325195,20.457957 -38.774448,22.579297 -2.904639,0.39883 -9.425187,0.57304 -12.462757,0.33295 z m 11.136932,-9.46573 c 11.469091,-1.55065 21.961835,-6.97658 29.669336,-15.342373 6.814517,-7.396544 11.020027,-16.167933 12.604857,-26.289847 0.53907,-3.442852 0.58852,-10.431625 0.0969,-13.700194 C 108.87423,45.105292 104.81885,36.206311 98.592007,29.201108 90.626999,20.240469 80.496051,14.748002 68.616545,12.94999 64.796703,12.371841 59.325305,12.296174 55.711846,12.771524 35.226542,15.466362 18.900531,29.861732 13.909731,49.630309 c -1.392844,5.517063 -1.831312,12.146886 -1.164737,17.611359 2.266742,18.582406 14.407248,34.029612 31.82992,40.499432 3.967414,1.47327 8.888485,2.56553 13.081476,2.90351 2.59689,0.20932 7.809768,0.0742 10.341437,-0.26812 z"
       id="path1307"
       inkscape:connector-curvature="0"
       transform="scale(26.458336)" />
    <path
       style="opacity:1;fill:#ff9753;fill-opacity:0;fill-rule:nonzero;stroke:#000000;stroke-width:0.75590551;stroke-miterlimit:4;stroke-dasharray:none;stroke-dashoffset:0;stroke-opacity:1"
       d="M 57.921555,110.46615 C 43.405616,109.30502 30.182963,101.83486 21.724337,90.016476 16.935579,83.325629 13.900974,75.38643 12.919257,66.980431 12.524584,63.601021 12.648021,57.510023 13.177858,54.219757 15.575257,39.332029 24.206934,26.72706 37.160891,19.196971 54.01304,9.4008753 75.232486,10.673282 90.957515,22.422842 c 10.512885,7.855102 17.330845,19.509926 19.238255,32.886399 0.476,3.338128 0.42411,9.824814 -0.10606,13.258252 -2.10881,13.656898 -9.31535,25.357431 -20.436738,33.181107 -6.306974,4.43682 -14.049006,7.42247 -21.92031,8.45338 -2.58385,0.33841 -7.296683,0.4653 -9.811107,0.26417 z"
       id="path1309"
       inkscape:connector-curvature="0"
       transform="scale(26.458336)" />
  </g>
  <g
     inkscape:groupmode="layer"
     id="layer2"
     inkscape:label="Text"
     style="display:inline"
     sodipodi:insensitive="true">
    <text
       xml:space="preserve"
       style="font-style:normal;font-variant:normal;font-weight:bold;font-stretch:normal;font-size:318.21627808px;line-height:1.25;font-family:'Liberation Sans';-inkscape-font-specification:'Liberation Sans, Bold';font-variant-ligatures:normal;font-variant-caps:normal;font-variant-numeric:normal;font-feature-settings:normal;text-align:start;letter-spacing:0px;word-spacing:0px;writing-mode:lr-tb;text-anchor:start;fill:#0000ff;fill-opacity:1;stroke:#000000;stroke-width:0.99074596;stroke-miterlimit:4;stroke-dasharray:none;stroke-opacity:1"
       id="text6618"
       transform="matrix(-1.012739,0,0,-1.0113842,3279.3773,3546.6398)"><textPath
         xlink:href="#path6604-3-7"
         id="textPath1461"
         startOffset="20%">     25  THOUSAND  $ATOSHIS</textPath></text>
    <text
       xml:space="preserve"
       style="font-style:normal;font-variant:normal;font-weight:normal;font-stretch:normal;font-size:141.11112976px;line-height:1.25;font-family:'Liberation Sans';-inkscape-font-specification:'Liberation Sans, Normal';font-variant-ligatures:normal;font-variant-caps:normal;font-variant-numeric:normal;font-feature-settings:normal;text-align:start;letter-spacing:0px;word-spacing:0px;writing-mode:lr-tb;text-anchor:start;fill:#0000ff;fill-opacity:1;stroke:#000000;stroke-width:1.00000024;stroke-miterlimit:4;stroke-dasharray:none;stroke-opacity:1"
       id="text6618-6"
       transform="translate(0.03876569,-270.51475)"><textPath
         xlink:href="#path6604"
         id="textPath6661"
         startOffset="0%">                                                                                                  RULES  WITHOUT  RULERS</textPath></text>
    <text
       xml:space="preserve"
       style="font-style:normal;font-variant:normal;font-weight:normal;font-stretch:normal;font-size:493.8888855px;line-height:1.25;font-family:Arial;-inkscape-font-specification:Arial;letter-spacing:0px;word-spacing:0px;fill:#000000;fill-opacity:1;stroke:none;stroke-width:26.45833397"
       x="-573.75995"
       y="1747.3599"
       id="text828"><tspan
         sodipodi:role="line"
         id="tspan826"
         x="-573.75995"
         y="2192.2324"
         style="stroke-width:26.45833397" /></text>
    <text
       xml:space="preserve"
       style="font-style:normal;font-variant:normal;font-weight:normal;font-stretch:normal;font-size:141.11112976px;line-height:1.25;font-family:'Liberation Sans';-inkscape-font-specification:'Liberation Sans, Normal';font-variant-ligatures:normal;font-variant-caps:normal;font-variant-numeric:normal;font-feature-settings:normal;text-align:start;letter-spacing:0px;word-spacing:0px;writing-mode:lr-tb;text-anchor:start;fill:#0000ff;fill-opacity:1;stroke:#000000;stroke-width:1.00000024;stroke-miterlimit:4;stroke-dasharray:none;stroke-opacity:1"
       id="text6618-6-4"
       transform="translate(0.03742071,-284.58335)"><textPath
         xlink:href="#path6604-3-7-2"
         id="textPath897">                                                                                                   0.00025  BITCOIN                     </textPath></text>
  </g>
  <g
     inkscape:groupmode="layer"
     id="layer4"
     inkscape:label="Bitcoin"
     style="display:inline"
     sodipodi:insensitive="true">
    <path
       style="display:inline;fill:none;stroke:#000002;stroke-width:1.00000024;stroke-linecap:butt;stroke-linejoin:miter;stroke-miterlimit:4;stroke-dasharray:none;stroke-opacity:1"
       d="m 1516.622,969.41135 5.5771,-279.46868 -171.0524,-8.02279 -7.9455,285.04886 -343.52122,-8.10956 -5.47422,185.41382 145.68474,5.8129 c 52.2231,10.0077 76.0008,40.6599 75.9606,88.5989 l -21.0902,769.0489 c -7.3837,37.8287 -32.2973,54.8554 -74.1576,51.7723 l -113.6363,-4.7498 -39.82226,203.2589 348.09246,13.4478 -12.6537,284.8223 170.9542,5.2602 11.589,-284.0275 139.1282,6.2846 -8.8913,278.6387 172.8642,7.1894 6.2312,-285.2352 c 137.182,-21.6818 269.1683,9.7853 416.4373,-115.078 43.1668,-52.8928 91.2457,-83.0625 113.1255,-240.6646 5.7995,-68.2427 1.2943,-134.613 -21.081,-197.7367 -27.0115,-65.5064 -69.2521,-92.4824 -102.5486,-111.4074 -34.5211,-18.3708 -68.9296,-36.8411 -109.3014,-50.0255 44.2108,-21.9609 86.3984,-51.6783 120.0722,-114.0308 11.9224,-26.4439 23.8121,-53.0348 28.4854,-112.1775 3.4779,-64.9176 0.9006,-131.715 -54.7361,-214.9823 -53.5841,-63.8336 -81.2701,-66.7315 -119.1124,-86.1768 -44.0683,-20.7915 -90.2792,-36.8534 -139.1711,-46.99664 l -98.284,-16.53717 6.3549,-279.27407 -169.1863,-6.80697 -9.1445,277.49703 z"
       id="path883-8"
       inkscape:connector-curvature="0"
       sodipodi:nodetypes="ccccccccccccccccccccccccccccccccccc" />
    <path
       style="display:inline;fill:none;stroke:#000002;stroke-width:1.00000024;stroke-linecap:butt;stroke-linejoin:miter;stroke-miterlimit:4;stroke-dasharray:none;stroke-opacity:1"
       d="m 1493.9145,2068.6985 7.2794,-379.1015 193.0264,5.3288 c 340.8631,-2.8092 433.5897,371.4764 -16.5093,378.1256 z"
       id="path881-9"
       inkscape:connector-curvature="0"
       sodipodi:nodetypes="ccccc" />
    <path
       style="display:inline;fill:none;stroke:#000002;stroke-width:1.00000024;stroke-linecap:butt;stroke-linejoin:miter;stroke-miterlimit:4;stroke-dasharray:none;stroke-opacity:1"
       d="m 1521.0256,1173.1463 -13.4459,344.281 166.1815,-2.9658 c 113.2156,-8.2137 194.26,-37.182 226.4951,-97.639 14.6097,-31.1102 24.2073,-59.8904 -0.2011,-134.6122 -27.7984,-45.3297 -65.3458,-86.0287 -161.6462,-98.8207 z"
       id="path4593-2"
       inkscape:connector-curvature="0"
       sodipodi:nodetypes="ccccccc" />
    <path
       style="opacity:1;fill:#ffff01;fill-opacity:1;fill-rule:nonzero;stroke:#000000;stroke-width:0;stroke-miterlimit:4;stroke-dasharray:none;stroke-dashoffset:0;stroke-opacity:1"
       d="m 64.227844,96.893133 c -1.585257,-0.07117 -2.92523,-0.172347 -2.977716,-0.224836 -0.05249,-0.05249 -0.01984,-2.388221 0.07254,-5.190517 0.105265,-3.193022 0.105707,-5.135558 0.0012,-5.2035 -0.16778,-0.109061 -5.124602,-0.338451 -5.230682,-0.242066 -0.03125,0.02839 -0.153132,2.401842 -0.270858,5.27434 -0.117726,2.872496 -0.25931,5.267983 -0.314629,5.323303 -0.05532,0.05532 -1.464763,0.04695 -3.132096,-0.0186 l -3.031568,-0.119177 0.01024,-0.546887 c 0.0056,-0.300789 0.113198,-2.694726 0.239035,-5.31986 0.125838,-2.625134 0.214836,-4.792059 0.197774,-4.81539 -0.01706,-0.02333 -2.968523,-0.162254 -6.558802,-0.308719 -3.59028,-0.146465 -6.534165,-0.266588 -6.541967,-0.26694 -0.0078,-3.54e-4 0.310395,-1.681498 0.707106,-3.73588 l 0.721293,-3.735241 2.514447,0.111736 c 3.01914,0.134162 3.744583,-0.05458 4.285562,-1.114982 0.306775,-0.601329 0.362495,-1.781689 0.731217,-15.489845 0.219563,-8.1614 0.341121,-15.138921 0.270167,-15.505602 C 45.72919,44.77784 44.894795,43.928062 43.805446,43.610824 43.293035,43.4616 41.73497,43.295689 40.257984,43.23307 l -2.633739,-0.11166 0.113954,-2.234211 c 0.06267,-1.228816 0.114277,-2.776895 0.114671,-3.440175 l 7.17e-4,-1.205963 0.928077,0.09579 c 0.510443,0.05269 3.453775,0.145696 6.540738,0.206688 l 5.61266,0.110894 4.42e-4,-1.563987 c 2.3e-4,-0.860193 0.05278,-3.297303 0.116749,-5.415801 l 0.116306,-3.851813 1.430048,0.09349 c 0.786526,0.05142 2.193063,0.140565 3.125638,0.198097 l 1.695593,0.104605 -0.08488,5.293637 -0.08488,5.293637 2.720314,-0.04893 2.720316,-0.04893 0.176776,-5.199595 0.176777,-5.199594 1.414214,0.0298 c 0.777817,0.01639 2.178981,0.07864 3.113697,0.138329 l 1.699483,0.108529 -0.05883,0.730236 c -0.03236,0.40163 -0.09543,2.760957 -0.140174,5.242948 l -0.08134,4.512711 2.241389,0.38089 c 2.916194,0.495563 4.764083,1.08463 7.367913,2.348731 1.648947,0.800527 2.324686,1.240015 3.034592,1.973638 1.917553,1.981619 2.889371,4.646473 2.884815,7.910547 -0.0014,1.047214 -0.120974,2.374238 -0.271243,3.011771 -0.599306,2.542655 -2.268062,4.826713 -4.408674,6.034241 l -1.05861,0.597164 0.52828,0.17427 c 1.382393,0.456029 4.783464,2.337575 5.639367,3.119822 2.773199,2.534548 3.651157,8.087002 2.116235,13.383693 -0.576185,1.988292 -1.07616,2.916855 -2.491249,4.626775 -1.94157,2.346095 -4.786701,4.011392 -8.012844,4.690032 -0.690101,0.145166 -2.8205,0.385227 -4.734223,0.533465 -1.913721,0.148239 -3.60631,0.308738 -3.761308,0.356663 -0.23558,0.07284 -0.300738,0.543388 -0.397159,2.8682 -0.06344,1.529585 -0.11561,3.954418 -0.115933,5.388519 -5.31e-4,1.982549 -0.05355,2.600849 -0.22156,2.579883 -0.121534,-0.01517 -1.517999,-0.08581 -3.103257,-0.156979 z m 0.943518,-18.552695 c 4.780385,-0.42323 8.027601,-1.980078 9.255591,-4.437502 1.923102,-3.848469 -1.130363,-8.188489 -6.698104,-9.520304 -1.227556,-0.293633 -2.37904,-0.380918 -6.290656,-0.476843 l -4.788051,-0.117416 -0.117502,5.359744 c -0.06462,2.947859 -0.1175,6.219951 -0.1175,7.271317 v 1.911573 l 3.049398,0.05283 c 1.677169,0.02905 3.208497,0.07003 3.402951,0.09105 0.194455,0.02102 1.231197,-0.03948 2.303873,-0.134447 z m 0.436166,-21.306314 c 4.725255,-0.780271 7.195158,-3.052226 6.818385,-6.271933 C 72.169127,48.567825 71.382047,47.185673 69.748581,46.060663 67.997404,44.854581 66.103663,44.5412 59.508732,44.366149 l -2.12132,-0.05631 -0.203985,4.949747 c -0.112193,2.722361 -0.21163,5.69481 -0.22097,6.605443 l -0.01699,1.655698 3.579728,-0.119243 c 1.968851,-0.06558 4.255899,-0.230895 5.08233,-0.367363 z"
       id="path1023"
       inkscape:connector-curvature="0"
       transform="scale(26.458336)" />
  </g>
</svg>
